<svg xmlns="http://www.w3.org/2000/svg" xmlns:xlink="http://www.w3.org/1999/xlink" xmlns:inkscape="http://www.inkscape.org/namespaces/inkscape" version="1.1" width="258.194" height="168.822" viewBox="0 0 258.194 168.822">
<defs>
<path id="font_1_1" d="M.49198915 .40434266C.45498658 .39733888 .44400025 .3653412 .44400025 .3503418 .44400025 .33132936 .45799256 .31433106 .48298646 .31433106 .5109863 .31433106 .5379944 .33833314 .5379944 .3733368 .5379944 .41937257 .48799134 .4423828 .44099427 .4423828 .3809967 .4423828 .34599305 .38934327 .33399964 .3683319 .31498719 .41737367 .2709961 .4423828 .22299195 .4423828 .115997318 .4423828 .057998659 .31433106 .057998659 .28833009 .057998659 .2793274 .06498718 .2763214 .07199097 .2763214 .08099365 .2763214 .083999637 .2813263 .085998538 .287323 .116989139 .38633729 .18299866 .41737367 .22099304 .41737367 .25 .41737367 .27598573 .3983307 .27598573 .35133363 .27598573 .31533814 .23298645 .15530396 .21998596 .107284549 .21199036 .076293949 .18199158 .014251709 .1269989 .014251709 .10699463 .014251709 .085998538 .021270752 .07598877 .027282715 .102996829 .032287599 .12298584 .055282594 .12298584 .08128357 .12298584 .106292728 .10398865 .11729431 .084991458 .11729431 .055999757 .11729431 .02999878 .092285159 .02999878 .058288576 .02999878 .009246826 .083999637-.0107421879 .12599182-.0107421879 .18399048-.0107421879 .21798706 .03729248 .23298645 .06428528 .2579956-.0017547608 .31698609-.0107421879 .34399415-.0107421879 .45199586-.0107421879 .5089874 .11929321 .5089874 .14329529 .5089874 .14830017 .5059967 .15530396 .49598695 .15530396 .4850006 .15530396 .48399354 .1512909 .47898866 .1362915 .45700074 .06428528 .39898683 .014251709 .34700013 .014251709 .31799317 .014251709 .29100038 .032287599 .29100038 .08029175 .29100038 .10229492 .30499269 .15730286 .31399537 .1953125 .31799317 .21331787 .34498597 .32133485 .34700013 .32833863 .35899354 .3643341 .3889923 .41737367 .43998719 .41737367 .45799256 .41737367 .47698976 .41436769 .49198915 .40434266Z"/>
<path id="font_1_2" d="M.5019989 .38536073C.5029907 .3903656 .5049896 .39637757 .5049896 .40237428 .5049896 .41537477 .49598695 .43138124 .47399903 .43138124 .46099855 .43138124 .44299317 .42337037 .43499757 .40437318 .43399049 .40037538 .42399598 .35935975 .41799928 .33735658L.36799623 .13728333C.3600006 .10827637 .3600006 .106277469 .35798646 .09727478 .35699464 .09327698 .31498719 .014251709 .24299622 .014251709 .18099976 .014251709 .18099976 .07727051 .18099976 .09628296 .18099976 .14129639 .19400025 .19030762 .23699951 .30233766 .24499512 .3253479 .25099183 .33935548 .25099183 .35835267 .25099183 .40737916 .21398926 .4423828 .16499329 .4423828 .068984989 .4423828 .0289917 .30033876 .0289917 .28833009 .0289917 .2793274 .035995485 .27633668 .042999269 .27633668 .053985597 .27633668 .054992677 .28233338 .05899048 .29533387 .07998657 .3693695 .11999512 .41737367 .1619873 .41737367 .18598938 .41737367 .18598938 .39837647 .18598938 .3843689 .18598938 .36735536 .18199158 .34934999 .17298889 .3253479 .12599182 .2013092 .11299133 .15930176 .11299133 .11128235 .11299133 .00024414063 .20298767-.0107421879 .23999024-.0107421879 .2889862-.0107421879 .32398988 .01524353 .34199525 .0332489 .32899476-.017745972 .31799317-.0627594 .2789917-.11276245 .24899292-.15286255 .20899964-.18008423 .16499329-.18008423 .13699341-.18008423 .10398865-.16999817 .08999634-.14176941 .14299011-.14176941 .1499939-.09776306 .1499939-.087768558 .1499939-.06576538 .13398743-.051757814 .11199951-.051757814 .08799744-.051757814 .055999757-.07077026 .055999757-.116760257 .055999757-.16899109 .101989749-.20507813 .16499329-.20507813 .2669983-.20507813 .37599183-.117767337 .40499879-.00074768069L.5019989 .38536073Z"/>
<path id="font_2_5" d="M.375 .10926819C.36999513 .09025574 .32299806 .018234253 .2559967 .018234253 .20698548 .018234253 .18998719 .054244996 .18998719 .09925842 .18998719 .15829468 .22499085 .24832154 .24699402 .3043518 .25698854 .32936097 .2599945 .33836366 .2599945 .35636903 .2599945 .4113922 .21598816 .44140626 .16999817 .44140626 .070999149 .44140626 .02999878 .300354 .02999878 .28834535 .02999878 .27934266 .036987306 .27534486 .04499817 .27534486 .057998659 .27534486 .05899048 .28134156 .06199646 .29135133 .08799744 .38038636 .13198853 .4133911 .16699219 .4133911 .18199158 .4133911 .19099427 .4033966 .19099427 .38038636 .19099427 .3573761 .18199158 .33436585 .16899109 .29934693 .1269989 .19329834 .117996219 .15028382 .117996219 .11427307 .117996219 .016220093 .19198609-.009765625 .25099183-.009765625 .32598878-.009765625 .37199403 .050247194 .37599183 .055236818 .3919983 .008224487 .43699647-.009765625 .47299195-.009765625 .519989-.009765625 .54299929 .030227662 .5499878 .04524231 .56999209 .08125305 .58399966 .13928223 .58399966 .14328003 .58399966 .14927674 .5799866 .15628052 .56799319 .15628052 .55599978 .15628052 .55400088 .1512909 .5479889 .12527466 .5349884 .07525635 .5169983 .018234253 .47599793 .018234253 .45298768 .018234253 .44400025 .037231447 .44400025 .06524658 .44400025 .08226013 .45298768 .11627197 .45899964 .14128113 .46499635 .16629029 .47999574 .22631836 .48399354 .24432373L.5039978 .32035829C.5099945 .34736634 .5219879 .39439393 .5219879 .40039063 .5219879 .42539979 .5019989 .43139649 .48999024 .43139649 .47599793 .43139649 .45399476 .4223938 .44699098 .39839173L.375 .10926819Z"/>
<path id="font_3_2" d="M.73098757 .3330078C.74598696 .3330078 .7659912 .3330078 .7659912 .3560028 .7659912 .3789978 .74198916 .3789978 .72698977 .3789978H.09799194C.08299255 .3789978 .05899048 .3789978 .05899048 .3560028 .05899048 .3330078 .07899475 .3330078 .09399414 .3330078H.73098757M.72698977 .12098694C.74198916 .12098694 .7659912 .12098694 .7659912 .14398194 .7659912 .16699219 .74598696 .16699219 .73098757 .16699219H.09399414C.07899475 .16699219 .05899048 .16699219 .05899048 .14398194 .05899048 .12098694 .08299255 .12098694 .09799194 .12098694H.72698977Z"/>
<path id="font_2_1" d="M.5099945 .14027405C.6029968 .24232483 .6359863 .3723755 .6359863 .38038636 .6359863 .38938905 .6299896 .39338685 .62098696 .39338685 .60798647 .39338685 .6069946 .38938905 .6009979 .3683777 .57299807 .2663269 .5130005 .18829346 .5099945 .18829346 .5079956 .18829346 .5079956 .21331787 .5079956 .22932434 .5059967 .4053955 .3919983 .44140626 .32398988 .44140626 .18299866 .44140626 .04399109 .3043518 .04399109 .1632843 .04399109 .0642395 .11299133-.009765625 .21899414-.009765625 .2889862-.009765625 .36299134 .0152282719 .44198609 .07424927 .46398927-.004776001 .5219879-.009765625 .5399933-.009765625 .5970001-.009765625 .6299896 .041229249 .6299896 .0602417 .6299896 .072250369 .6179962 .072250369 .61499026 .072250369 .60398867 .072250369 .60198977 .069244388 .598999 .0622406 .58299258 .020233155 .548996 .018234253 .5439911 .018234253 .5299988 .018234253 .5139923 .018234253 .5099945 .14027405M.43499757 .10726929C.3639984 .04324341 .27999879 .018234253 .22200012 .018234253 .16999817 .018234253 .125 .048233034 .125 .12828064 .125 .1632843 .14099121 .2663269 .18798828 .33335877 .22799683 .38938905 .28199769 .4133911 .32299806 .4133911 .37799073 .4133911 .40899659 .3743744 .42199708 .3133545 .43699647 .24533081 .42900086 .1652832 .43499757 .10726929Z"/>
<path id="font_2_6" d="M.5009918 .39942933C.45700074 .38842774 .45498658 .34942628 .45498658 .34542848 .45498658 .3234253 .47200013 .3084259 .49398805 .3084259 .5159912 .3084259 .5499878 .3254242 .5499878 .36842347 .5499878 .42539979 .4869995 .44140626 .44999696 .44140626 .40299989 .44140626 .36499024 .4084015 .34199525 .36943055 .31999208 .4223938 .2679901 .44140626 .22698975 .44140626 .117996219 .44140626 .056991579 .31643678 .056991579 .28840638 .056991579 .27938844 .06399536 .27539063 .07199097 .27539063 .083999637 .27539063 .085998538 .2803955 .08898926 .29240418 .11199951 .36543275 .17199707 .4133911 .22399903 .4133911 .2630005 .4133911 .28199769 .385437 .28199769 .34942628 .28199769 .32943727 .269989 .2834015 .2619934 .25135804 .25498963 .22232056 .23298645 .13320923 .22799683 .11419678 .21398926 .060195924 .17799378 .018234253 .1329956 .018234253 .1289978 .018234253 .102996829 .018234253 .08198547 .032196046 .12799073 .04319763 .12799073 .08518982 .12799073 .0861969 .12799073 .109191898 .10998535 .12319946 .08799744 .12319946 .06098938 .12319946 .03199768 .10018921 .03199768 .062194826 .03199768 .016220093 .08099365-.009765625 .13198853-.009765625 .18499756-.009765625 .22200012 .030197144 .23999024 .062194826 .2619934 .01322937 .30799867-.009765625 .35598756-.009765625 .46499635-.009765625 .5249939 .1151886 .5249939 .143219 .5249939 .15322876 .5169983 .15623474 .5099945 .15623474 .49798585 .15623474 .49598695 .14923096 .49299623 .13922119 .47299195 .07218933 .41600038 .018234253 .35798646 .018234253 .32499696 .018234253 .30099488 .04019165 .30099488 .0821991 .30099488 .10218811 .30699159 .12519837 .32099916 .18127442 .32798768 .21130371 .34999085 .29942323 .35499574 .31843568 .36898805 .37042237 .4039917 .4133911 .44898988 .4133911 .45399476 .4133911 .47999574 .4133911 .5009918 .39942933Z"/>
<path id="font_3_1" d="M.43598939 .22743225H.7299957C.74398806 .22743225 .7659912 .22743225 .7659912 .25042726 .7659912 .2734375 .74398806 .2734375 .7299957 .2734375H.43598939V.56799319C.43598939 .5819855 .43598939 .6039734 .41299439 .6039734 .3899994 .6039734 .3899994 .5819855 .3899994 .56799319V.2734375H.09498596C.08099365 .2734375 .05899048 .2734375 .05899048 .25042726 .05899048 .22743225 .08099365 .22743225 .09498596 .22743225H.3899994V-.067993167C.3899994-.08201599 .3899994-.104019168 .41299439-.104019168 .43598939-.104019168 .43598939-.08201599 .43598939-.067993167V.22743225Z"/>
<path id="font_2_2" d="M.59999087 .5689087C.59999087 .6600647 .526001 .7050934 .44299317 .7050934 .31399537 .7050934 .21798706 .55888369 .18998719 .4486847L.03199768-.18234253C.02999878-.18934632 .037994386-.19433594 .04399109-.19433594 .051986696-.19433594 .05999756-.19433594 .06199646-.18734741L.12998963 .08114624C.15299988 .027252198 .19999695-.008728027 .27198792-.008728027 .4099884-.008728027 .5609894 .08912659 .5609894 .24780274 .5609894 .31367494 .5359955 .35758973 .48599244 .3986206 .49198915 .3996277 .5099945 .4126587 .5149994 .4166565 .5649872 .45069886 .59999087 .50779727 .59999087 .5689087M.40299989 .3986206C.3849945 .39559938 .36698915 .3935852 .34799195 .3935852 .33699037 .3935852 .32598878 .3935852 .31498719 .39761354 .33399964 .40264894 .35398866 .40264894 .37298585 .40264894 .3829956 .40264894 .3929901 .40164186 .40299989 .3986206M.5369873 .5879364C.5369873 .5378418 .5149994 .4787445 .47999574 .4436798 .47499085 .43867494 .45399476 .41966249 .44799806 .4186554 .41999818 .42366029 .397995 .43066407 .36898805 .43066407 .34298707 .43066407 .27999879 .43266297 .27999879 .3935852 .27999879 .36357118 .33699037 .36557008 .35699464 .36557008 .3880005 .36557008 .4169922 .36857606 .44599916 .37957765 .47599793 .35559083 .4909973 .32365418 .4909973 .27375794 .4909973 .21487427 .47099305 .14900208 .44198609 .10908508 .40499879 .05619812 .34298707 .01927185 .2679901 .01927185 .20199585 .01927185 .1499939 .07015991 .1499939 .1400299 .1499939 .15299988 .15098572 .16596985 .1539917 .1759491L.21998596 .4416809C.24198914 .52983096 .32699586 .6770935 .43899537 .6770935 .48999024 .6770935 .5369873 .65205386 .5369873 .5879364Z"/>
<path id="font_2_7" d="M.5179901 .37738038C.5219879 .39138795 .5219879 .39338685 .5219879 .40039063 .5219879 .42539979 .5019989 .43139649 .48999024 .43139649 .4850006 .43139649 .46199037 .43040467 .44898988 .40438844 .44699098 .3993988 .43798829 .3633728 .43299867 .34236146L.37298585 .102264408C.37199403 .09925842 .32899476 .018234253 .2559967 .018234253 .20698548 .018234253 .18998719 .054244996 .18998719 .09925842 .18998719 .1572876 .22399903 .24632263 .24699402 .3043518 .25698854 .32936097 .2599945 .33836366 .2599945 .35636903 .2599945 .4113922 .21598816 .44140626 .16999817 .44140626 .070999149 .44140626 .02999878 .300354 .02999878 .28834535 .02999878 .27934266 .036987306 .27534486 .04499817 .27534486 .057998659 .27534486 .05899048 .28134156 .06199646 .29135133 .08799744 .37838746 .1309967 .4133911 .16699219 .4133911 .18199158 .4133911 .19099427 .4033966 .19099427 .38038636 .19099427 .359375 .18299866 .33636476 .17599488 .31835938 .1349945 .21231079 .117996219 .1612854 .117996219 .11427307 .117996219 .016220093 .19198609-.009765625 .25099183-.009765625 .2979889-.009765625 .33198548 .011230469 .35598756 .034240724 .34199525-.021774292 .33198548-.060791017 .2939911-.108795169 .26098634-.14985657 .22099304-.17610169 .17599488-.17610169 .15899658-.17610169 .12098694-.17308045 .100997928-.14279175 .1539917-.13879395 .1579895-.09379578 .1579895-.08778381 .1579895-.06378174 .13999939-.05078125 .11898804-.05078125 .09700012-.05078125 .06199646-.0677948 .06199646-.11679077 .06199646-.1639862 .10499573-.20410156 .17599488-.20410156 .27799989-.20410156 .3929901-.121795658 .4229889-.00077819827L.5179901 .37738038Z"/>
<path id="font_3_5" d="M.48599244 .3032837C.48599244 .38737489 .44799806 .44140626 .34298707 .44140626 .25498963 .44140626 .20899964 .38537599 .19099427 .35333253H.18998719V.69433596L.040985109 .68333438V.6503296C.10899353 .6503296 .116989139 .6433258 .116989139 .5943451V.07803345C.116989139 .032989503 .10499573 .032989503 .040985109 .032989503V0C.083999637 .0029907227 .12799073 .0029907227 .15499878 .0029907227 .18399048 .0029907227 .22599793 .0029907227 .2689972 0V.032989503C.20498657 .032989503 .19299317 .032989503 .19299317 .07803345V.25923158C.19299317 .36434938 .272995 .4133911 .33399964 .4133911 .394989 .4133911 .4099884 .37036134 .4099884 .3072815V.07803345C.4099884 .032989503 .397995 .032989503 .33399964 .032989503V0C.3769989 .0029907227 .42099 .0029907227 .44799806 .0029907227 .47698976 .0029907227 .5189972 .0029907227 .56199648 0V.032989503C.49798585 .032989503 .48599244 .032989503 .48599244 .07803345V.3032837Z"/>
<path id="font_3_6" d="M.19499207 .61586C.19499207 .64486697 .17199707 .671875 .13899231 .671875 .10998535 .671875 .083999637 .64886477 .083999637 .61686709 .083999637 .5818634 .11299133 .5608673 .13899231 .5608673 .17399597 .5608673 .19499207 .58987429 .19499207 .61586M.04499817 .43040467V.3973999C.10899353 .3973999 .117996219 .39138795 .117996219 .34233094V.078048709C.117996219 .032989503 .10598755 .032989503 .041992189 .032989503V0C.08099365 .0029907227 .13699341 .0029907227 .1519928 .0029907227 .16499329 .0029907227 .22499085 .0029907227 .2599945 0V.032989503C.19499207 .032989503 .19099427 .037994386 .19099427 .077041629V.44140626L.04499817 .43040467Z"/>
<path id="font_3_4" d="M.17298889 .06889343C.14199829 .07191467 .116989139 .099105838 .116989139 .13536072 .116989139 .15945435 .12298584 .16845703 .12998963 .17745972 .17199707 .15245056 .21099854 .14746094 .23498535 .14746094 .33399964 .14746094 .40699769 .21644593 .40699769 .29441834 .40699769 .33241273 .3899994 .3644104 .3659973 .39039613 .37998963 .4024048 .41299439 .42340089 .46199037 .4243927 .45799256 .42140199 .45298768 .4163971 .45298768 .40040589 .45298768 .3824005 .46598817 .36941529 .48399354 .36941529 .49798585 .36941529 .5149994 .3784027 .5149994 .4013977 .5149994 .418396 .5019989 .45239259 .45799256 .45239259 .44099427 .45239259 .3929901 .44839479 .34700013 .4064026 .32199098 .4243927 .2829895 .44140626 .23599243 .44140626 .13699341 .44140626 .06399536 .372406 .06399536 .29441834 .06399536 .24743653 .08999634 .21244812 .11099243 .19244385 .08898926 .16744995 .08099365 .13536072 .08099365 .111190799 .08099365 .06990051 .100997928 .038894655 .12298584 .021896363 .070999149 .007904053 .02999878-.031097413 .02999878-.0770874 .02999878-.14909363 .1329956-.20507813 .2649994-.20507813 .3899994-.20507813 .5-.15408325 .5-.0750885 .5-.021102906 .46798707 .020904541 .43499757 .037902833 .37599183 .06889343 .32699586 .06889343 .22898865 .06889343H.17298889M.23599243 .17645264C.14299011 .17645264 .14299011 .27243043 .14299011 .29441834 .14299011 .3314209 .147995 .35740663 .16299439 .3774109 .17999268 .40040589 .20799256 .4123993 .23498535 .4123993 .32798768 .4123993 .32798768 .3164215 .32798768 .29441834 .32798768 .25743104 .32299806 .23144531 .30799867 .21144104 .28599549 .18345642 .2539978 .17645264 .23599243 .17645264M.2829895 .00390625C.30999757 .00390625 .44099427 .00390625 .44099427-.07609558 .44099427-.13009644 .3639984-.17608643 .2649994-.17608643 .16499329-.17608643 .08898926-.13009644 .08898926-.07609558 .08898926-.055099489 .10499573 .00390625 .18699646 .00390625H.2829895Z"/>
<path id="font_3_3" d="M.41299439 .22851563C.43499757 .22851563 .44099427 .22851563 .44099427 .25151063 .44099427 .34039308 .3919983 .44628907 .25099183 .44628907 .1269989 .44628907 .02999878 .3433838 .02999878 .21949768 .02999878 .09031677 .13798523-.009765625 .2639923-.009765625 .3909912-.009765625 .44099427 .097335819 .44099427 .12036133 .44099427 .12435913 .43798829 .13438416 .4249878 .13438416 .4139862 .13438416 .4119873 .12736511 .4099884 .12136841 .37399293 .024230957 .28799439 .021224976 .269989 .021224976 .22499085 .021224976 .1789856 .042251588 .14898682 .08831787 .11898804 .13438416 .11898804 .19847107 .11898804 .22851563H.41299439M.11999512 .25450135C.1289978 .39431764 .21398926 .41827394 .25099183 .41827394 .36799623 .41827394 .37199403 .27748109 .37298585 .25450135H.11999512Z"/>
<path id="font_3_7" d="M.18399048 .22821045C.18399048 .30329896 .21499634 .4113922 .31098939 .4133911 .30499269 .4093933 .29499818 .4013977 .29499818 .3783722 .29499818 .34735108 .31900025 .33332826 .33898927 .33332826 .36299134 .33332826 .38398744 .34934999 .38398744 .3783722 .38398744 .4133911 .35198976 .44140626 .30799867 .44140626 .24299622 .44140626 .19898987 .39239503 .17799378 .33633424H.1769867V.44140626L.034988405 .43040467V.3973999C.102996829 .3973999 .11099243 .39039613 .11099243 .3413391V.078048709C.11099243 .032989503 .09899902 .032989503 .034988405 .032989503V0C.07398987 .0029907227 .1289978 .0029907227 .15299988 .0029907227 .21199036 .0029907227 .21398926 .0029907227 .2789917 0V.032989503H.25898744C.18598938 .032989503 .18399048 .044006349 .18399048 .08004761V.22821045Z"/>
<path id="font_2_4" d="M.051986696-.1211853C.04399109-.15332031 .041992189-.16134644 .0019989014-.16134644-.012008667-.16134644-.024002076-.16134644-.024002076-.18034363-.024002076-.18934632-.015014648-.19433594-.010009766-.19433594 0-.19433594 .0039978029-.19134522 .07798767-.19134522 .1499939-.19134522 .17098999-.19433594 .17799378-.19433594 .18199158-.19433594 .19699097-.19433594 .19699097-.17533875 .19699097-.16134644 .18299866-.16134644 .17098999-.16134644 .12298584-.16134644 .12298584-.15531922 .12298584-.14628601 .12298584-.13926697 .14099121-.067993167 .17098999 .049240114 .18399048 .026229859 .21499634-.009765625 .2689972-.009765625 .3919983-.009765625 .519989 .13227844 .519989 .27734376 .519989 .37638856 .45599366 .44140626 .37599183 .44140626 .31599427 .44140626 .2679901 .40039063 .23899842 .3703766 .21798706 .44140626 .15098572 .44140626 .14099121 .44140626 .10499573 .44140626 .07998657 .418396 .06399536 .38739015 .040985109 .34236146 .02999878 .29135133 .02999878 .28834535 .02999878 .27934266 .036987306 .27534486 .04499817 .27534486 .057998659 .27534486 .05899048 .27934266 .06599426 .3053589 .07899475 .35636903 .09700012 .4133911 .13798523 .4133911 .16299439 .4133911 .16999817 .39038087 .16999817 .36637879 .16999817 .35636903 .1659851 .33236695 .1639862 .32435609L.051986696-.1211853M.23599243 .3083496C.24099732 .32536317 .24099732 .32736207 .2559967 .34536744 .2939911 .39038087 .33699037 .4133911 .37298585 .4133911 .4229889 .4133911 .44198609 .36437989 .44198609 .3193512 .44198609 .28234864 .41999818 .17529297 .3899994 .11627197 .3639984 .0622406 .31599427 .018234253 .2689972 .018234253 .20098877 .018234253 .18499756 .0962677 .18499756 .103256229 .18499756 .105270389 .18699646 .11627197 .18798828 .119277957L.23599243 .3083496Z"/>
<path id="font_4_1" d="M.5629883 .39352418C.5279999 .38352967 .519989 .3545227 .519989 .33952333 .519989 .30752564 .54599 .30052186 .55999758 .30052186 .58898928 .30052186 .6179962 .32452394 .6179962 .3635254 .6179962 .41740418 .5589905 .44140626 .5079956 .44140626 .44198609 .44140626 .4019928 .3905182 .3909912 .371521 .37799073 .39649964 .33999635 .44140626 .2649994 .44140626 .1499939 .44140626 .08198547 .32252503 .08198547 .28749085 .08198547 .2824707 .085998538 .27345277 .099990848 .27345277 .11399841 .27345277 .116989139 .27946473 .11999512 .28848268 .14498902 .3695221 .21299744 .4084015 .2619934 .4084015 .31098939 .4084015 .32598878 .37652589 .32598878 .34352113 .32598878 .3315277 .32598878 .32252503 .31799317 .29148866 .29499818 .19825745 .272995 .10707092 .2679901 .095077518 .25299073 .05708313 .21699524 .023223877 .1749878 .023223877 .16899109 .023223877 .14099121 .023223877 .117996219 .038085939 .15699768 .051071168 .16099549 .08407593 .16099549 .09207153 .16099549 .11807251 .14099121 .13108826 .12098694 .13108826 .09298706 .13108826 .06298828 .10908508 .06298828 .06808472 .06298828 .011230469 .12599182-.009765625 .17298889-.009765625 .22999573-.009765625 .2709961 .029159546 .2899933 .060073854 .30999757 .018234253 .35798646-.009765625 .4149933-.009765625 .5329895-.009765625 .598999 .111083988 .598999 .14411927 .598999 .14611817 .59799197 .15815735 .5799866 .15815735 .56599429 .15815735 .56399539 .1511383 .5609894 .1421051 .5319977 .05508423 .46099855 .023223877 .4189911 .023223877 .3809967 .023223877 .35398866 .045074464 .35398866 .08708191 .35398866 .1060791 .35899354 .12808228 .36799623 .16316223L.3999939 .2935028C.4099884 .33251954 .4149933 .3505249 .43598939 .37452699 .44999696 .38952638 .47399903 .4084015 .5059967 .4084015 .5109863 .4084015 .54100039 .4084015 .5629883 .39352418Z"/>
<path id="font_4_2" d="M.59599307 .38438417C.59799197 .39138795 .598999 .395401 .598999 .39839173 .598999 .4104004 .58999636 .43139649 .5629883 .43139649 .54599 .43139649 .5289917 .4203949 .5219879 .4064026 .5179901 .3993988 .5109863 .3683777 .5059967 .3493805L.4850006 .26634217 .45399476 .14128113C.44699098 .11326599 .44299317 .09725952 .40299989 .059249879 .3919983 .049240114 .3600006 .023223877 .31698609 .023223877 .24299622 .023223877 .24299622 .088256839 .24299622 .10626221 .24299622 .15028382 .25498963 .19529724 .29899598 .3053589 .30899049 .32936097 .31199647 .33636476 .31199647 .35437013 .31199647 .4104004 .2619934 .44140626 .21199036 .44140626 .10998535 .44140626 .06098938 .3093567 .06098938 .28733827 .06098938 .28234864 .06498718 .27334596 .07899475 .27334596 .09298706 .27334596 .09599304 .27934266 .09899902 .28834535 .1269989 .38539125 .17999268 .4084015 .20799256 .4084015 .22799683 .4084015 .23498535 .395401 .23498535 .37239076 .23498535 .3513794 .22200012 .3173523 .21099854 .29034425 .17599488 .20230103 .1639862 .15628052 .1639862 .120269779 .1639862 .025222779 .23498535-.009765625 .31298829-.009765625 .32699586-.009765625 .37399293-.009765625 .4269867 .036239625 .4139862-.01878357 .40499879-.05781555 .35699464-.109817508 .33898927-.12980652 .2939911-.1710968 .23399353-.1710968 .22499085-.1710968 .18199158-.17008972 .15899658-.14382935 .20298767-.13581848 .20899964-.09681702 .20899964-.08781433 .20899964-.060806276 .18699646-.049804689 .16799927-.049804689 .14299011-.049804689 .10998535-.06980896 .10998535-.11581421 .10998535-.16403198 .15699768-.20410156 .23498535-.20410156 .34098817-.20410156 .46899415-.12580872 .5-.00077819827L.59599307 .38438417Z"/>
<path id="font_2_3" d="M.19999695 .16429138C.20298767 .17929077 .21299744 .21731568 .21598816 .23231507 .21899414 .24232483 .22499085 .2663269 .22698975 .27633668 .22898865 .28134156 .2619934 .3463745 .30599977 .37937928 .33999635 .4053955 .37298585 .4133911 .40098573 .4133911 .43798829 .4133911 .45799256 .39138795 .45799256 .34536744 .45799256 .32136537 .45199586 .2983551 .44099427 .25332643 .43399049 .22731018 .4169922 .16029358 .41099549 .13327027L.3959961 .07325745C.3909912 .056243898 .38398744 .026229859 .38398744 .021224976 .38398744-.0017700195 .40299989-.009765625 .41600038-.009765625 .43399049-.009765625 .44898988 .0022277833 .45599366 .014221191 .45899964 .020233155 .46699525 .054244996 .47200013 .07525635L.49499513 .16429138C.49798585 .17929077 .5079956 .21731568 .5109863 .23231507 .5249939 .28634645 .5249939 .28733827 .5479889 .32035829 .58099368 .36938478 .6279907 .4133911 .69499209 .4133911 .73098757 .4133911 .7519989 .39239503 .7519989 .34536744 .7519989 .29034425 .70999148 .17529297 .69099429 .12727356 .68099978 .101257327 .6779938 .09425354 .6779938 .07525635 .6779938 .018234253 .72499087-.009765625 .7679901-.009765625 .8659973-.009765625 .9069977 .13027954 .9069977 .14328003 .9069977 .1532898 .8989868 .15628052 .8919983 .15628052 .8799896 .15628052 .8779907 .14927674 .875 .13928223 .8509979 .056243898 .8089905 .018234253 .7709961 .018234253 .7549896 .018234253 .746994 .02822876 .746994 .051239015 .746994 .07424927 .7549896 .0962677 .7649994 .121276859 .7799988 .1592865 .82398989 .27433778 .82398989 .33036805 .82398989 .4053955 .7719879 .44140626 .69999697 .44140626 .6309967 .44140626 .57398989 .4053955 .5289917 .34336854 .5209961 .42340089 .45700074 .44140626 .40499879 .44140626 .35899354 .44140626 .2979889 .42539979 .24299622 .3533783 .23599243 .4133911 .18798828 .44140626 .14099121 .44140626 .10598755 .44140626 .08099365 .4203949 .06399536 .38638307 .039993287 .33937074 .02999878 .29034425 .02999878 .28834535 .02999878 .27934266 .036987306 .27534486 .04499817 .27534486 .057998659 .27534486 .05899048 .27934266 .06599426 .3053589 .07798767 .35437013 .09599304 .4133911 .13798523 .4133911 .1639862 .4133911 .16999817 .38838197 .16999817 .36637879 .16999817 .3483734 .16499329 .32936097 .15699768 .29634095 .15499878 .28834535 .13999939 .22932434 .13598633 .21531677L.09899902 .06524658C.09498596 .050247194 .08898926 .025222779 .08898926 .021224976 .08898926-.0017700195 .10798645-.009765625 .12098694-.009765625 .13899231-.009765625 .1539917 .0022277833 .16099549 .014221191 .1639862 .020233155 .17199707 .054244996 .1769867 .07525635L.19999695 .16429138Z"/>
<path id="font_5_3" d="M.48399354 .21324158C.48399354 .34423829 .37998963 .4482422 .25698854 .4482422 .12998963 .4482422 .0289917 .3412323 .0289917 .21324158 .0289917 .08824158 .1329956-.0107421879 .2559967-.0107421879 .3829956-.0107421879 .48399354 .09024048 .48399354 .21324158M.25698854 .01725769C.20698548 .01725769 .16499329 .042251588 .14199829 .08125305 .115997318 .12324524 .114990238 .17623902 .114990238 .22224427 .114990238 .25924684 .114990238 .3162384 .13999939 .35723878 .16999817 .40823365 .21998596 .42323304 .2559967 .42323304 .31298829 .42323304 .35398866 .39123536 .37399293 .35723878 .39698792 .31523133 .397995 .26423646 .397995 .22224427 .397995 .1852417 .397995 .12724304 .37298585 .08325195 .34498597 .037246705 .29899598 .01725769 .25698854 .01725769Z"/>
<path id="font_5_4" d="M.18099976 .3363495C.21499634 .3943634 .269989 .41436769 .31199647 .41436769 .3899994 .41436769 .44999696 .32434083 .44999696 .2163086 .44999696 .10227966 .38198854 .014251709 .30099488 .014251709 .2559967 .014251709 .21798706 .040252687 .19400025 .07527161 .18099976 .09527588 .18099976 .09727478 .18099976 .11628723V.3363495M.18099976 .04826355C.20698548 .022247315 .24099732-.0107421879 .30699159-.0107421879 .42599488-.0107421879 .5359955 .08526611 .5359955 .2163086 .5359955 .3423462 .43798829 .4423828 .31999208 .4423828 .2659912 .4423828 .21598816 .42037965 .17799378 .379364V.4416504L.02999878 .43066407V.3996582C.100997928 .3996582 .10699463 .3936615 .10699463 .35066224V-.11734009C.10699463-.16334534 .09599304-.16334534 .02999878-.16334534V-.19433594C.07699585-.19233704 .09599304-.19134522 .14399719-.19134522 .19198609-.19134522 .20498657-.19233704 .2579956-.19433594V-.16334534C.19198609-.16334534 .18099976-.16334534 .18099976-.11734009V.04826355Z"/>
<path id="font_5_5" d="M.32499696 .3996582V.43066407H.17999268V.6147156H.1519928C.15098572 .5307007 .115997318 .42765809 .018997193 .4246521V.3996582H.10598755V.12408447C.10598755 .012252808 .18699646-.0107421879 .23999024-.0107421879 .30699159-.0107421879 .34199525 .05319214 .34199525 .12408447V.18099976H.31399537V.1270752C.31399537 .05319214 .2829895 .01725769 .24699402 .01725769 .17999268 .01725769 .17999268 .1051178 .17999268 .12309265V.3996582H.32499696Z"/>
<path id="font_5_1" d="M.18399048 .4423828 .039993287 .43138124V.40037538C.10398865 .40037538 .11299133 .3943634 .11299133 .34532167V.077041629C.11299133 .0309906 .101989749 .0309906 .035995485 .0309906V0C.08099365 .0019989014 .101989749 .0029907227 .1459961 .0029907227 .1619873 .0029907227 .20399475 .0029907227 .25299073 0V.0309906C.18798828 .0309906 .18399048 .035995485 .18399048 .075042728V.4423828M.18699646 .615921C.18699646 .6459198 .16299439 .6699219 .1329956 .6699219 .101989749 .6699219 .07899475 .6449127 .07899475 .615921 .07899475 .58691409 .101989749 .56192019 .1329956 .56192019 .16299439 .56192019 .18699646 .585907 .18699646 .615921Z"/>
<path id="font_5_2" d="M.18598938 .2592163C.18598938 .36732484 .2639923 .41737367 .32398988 .41737367 .3789978 .41737367 .39698792 .37834168 .39698792 .30825807V.077041629C.39698792 .0309906 .38598634 .0309906 .31999208 .0309906V0C.36698915 .0019989014 .38598634 .0029907227 .43399049 .0029907227 .48199464 .0029907227 .49499513 .0019989014 .5479889 0V.0309906C.48199464 .0309906 .47099305 .0309906 .47099305 .077041629V.2592163C.47099305 .36732484 .548996 .41737367 .60899356 .41737367 .6639862 .41737367 .6819916 .37834168 .6819916 .30825807V.077041629C.6819916 .0309906 .67099 .0309906 .6049957 .0309906V0C.6519928 .0019989014 .67099 .0029907227 .71899417 .0029907227 .7669983 .0029907227 .7799988 .0019989014 .83299258 0V.0309906C.7819977 .0309906 .7569885 .0309906 .7559967 .062026979V.25421144C.7559967 .34129334 .7559967 .36932374 .72299197 .4063568 .70199587 .43037416 .6619873 .4423828 .6159973 .4423828 .5439911 .4423828 .49499513 .4003601 .46699525 .3473053 .45498658 .4063568 .4149933 .4423828 .33099366 .4423828 .25099183 .4423828 .20199585 .39035035 .18099976 .34429933L.17999268 .34370423V.4416504L.034988405 .43066407V.3996582C.102996829 .3996582 .11199951 .39266969 .11199951 .34370423V.07695007C.11199951 .0309906 .100997928 .0309906 .034988405 .0309906V0C.08198547 .0019989014 .100997928 .0029907227 .14898682 .0029907227 .19699097 .0029907227 .20999146 .0019989014 .2630005 0V.0309906C.19699097 .0309906 .18598938 .0309906 .18598938 .07695007V.2592163Z"/>
<path id="font_5_6" d="M.3959961 .16729737C.3959961 .07827759 .34599305 .014251709 .27398683 .014251709 .19099427 .014251709 .18598938 .057266237 .18598938 .11128235V.4423828L.034988405 .43138124V.40037538C.11199951 .40037538 .11199951 .39736939 .11199951 .3083496V.15829468C.11199951 .09327698 .11199951 .05126953 .1579895 .01625061 .18699646-.003753662 .22799683-.0107421879 .2679901-.0107421879 .31999208-.0107421879 .36898805 .012252808 .397995 .072265628L.39898683 .07203674V-.011001587L.5469971 0V.0309906C.47898866 .0309906 .46998597 .037994386 .46998597 .08705139V.4423828L.31900025 .43138124V.40037538C.3869934 .40037538 .3959961 .39337159 .3959961 .34431459V.16729737Z"/>
</defs>
<path transform="matrix(1,0,0,-1,15.686,154.136)" stroke-width=".3985" stroke-linecap="butt" stroke-miterlimit="10" stroke-linejoin="miter" fill="none" stroke="#2a2620" d="M0 0H230.28214"/>
<path transform="matrix(1,0,0,-1,243.59307,154.136)" d="M6.23575 0 .64343 2.10364 2.47467 0 .64343-2.10364Z" fill="#2a2620"/>
<path transform="matrix(1,0,0,-1,243.59307,154.136)" stroke-width=".3985" stroke-linecap="butt" stroke-miterlimit="10" stroke-linejoin="miter" fill="none" stroke="#2a2620" d="M6.23575 0 .64343 2.10364 2.47467 0 .64343-2.10364Z"/>
<use data-text="x" xlink:href="#font_1_1" transform="matrix(8.9664,0,0,-8.9664,241.65001,161.516)" fill="#2a2620"/>
<path transform="matrix(1,0,0,-1,15.686,154.136)" stroke-width=".3985" stroke-linecap="butt" stroke-miterlimit="10" stroke-linejoin="miter" fill="none" stroke="#2a2620" d="M0 0V145.5259"/>
<path transform="matrix(0,-1,-1,-0,15.686,10.985168)" d="M6.23575 0 .64343 2.10364 2.47467 0 .64343-2.10364Z" fill="#2a2620"/>
<path transform="matrix(0,-1,-1,-0,15.686,10.985168)" stroke-width=".3985" stroke-linecap="butt" stroke-miterlimit="10" stroke-linejoin="miter" fill="none" stroke="#2a2620" d="M6.23575 0 .64343 2.10364 2.47467 0 .64343-2.10364Z"/>
<use data-text="y" xlink:href="#font_1_2" transform="matrix(8.9664,0,0,-8.9664,7.3059999,11.563995)" fill="#2a2620"/>
<path transform="matrix(1,0,0,-1,15.686,154.136)" stroke-width=".3985" stroke-linecap="butt" stroke-miterlimit="10" stroke-linejoin="miter" fill="none" stroke="#7a6f62" d="M65.19733 0 0 65.19733"/>
<path transform="matrix(1,0,0,-1,15.686,154.136)" stroke-width=".3985" stroke-linecap="butt" stroke-miterlimit="10" stroke-linejoin="miter" fill="none" stroke="#7a6f62" d="M130.39466 0 0 130.39466"/>
<path transform="matrix(1,0,0,-1,15.686,154.136)" stroke-width=".3985" stroke-linecap="butt" stroke-miterlimit="10" stroke-linejoin="miter" fill="none" stroke="#7a6f62" d="M195.592 0 65.19733 130.39466"/>
<use data-text="u" xlink:href="#font_2_5" transform="matrix(7.9701,0,0,-7.9701,86.032,28.996003)" fill="#7a6f62"/>
<use data-text="=" xlink:href="#font_3_2" transform="matrix(7.9701,0,0,-7.9701,93.286998,28.996003)" fill="#7a6f62"/>
<use data-text="&#x03b1;" xlink:href="#font_2_1" transform="matrix(7.9701,0,0,-7.9701,102.226,28.996003)" fill="#7a6f62"/>
<use data-text="x" xlink:href="#font_2_6" transform="matrix(7.9701,0,0,-7.9701,107.661609,28.996003)" fill="#7a6f62"/>
<use data-text="+" xlink:href="#font_3_1" transform="matrix(7.9701,0,0,-7.9701,114.313999,28.996003)" fill="#7a6f62"/>
<use data-text="&#x03b2;" xlink:href="#font_2_2" transform="matrix(7.9701,0,0,-7.9701,122.782,28.996003)" fill="#7a6f62"/>
<use data-text="y" xlink:href="#font_2_7" transform="matrix(7.9701,0,0,-7.9701,127.93866,28.996003)" fill="#7a6f62"/>
<path transform="matrix(1,0,0,-1,15.686,154.136)" stroke-width=".3985" stroke-linecap="butt" stroke-miterlimit="10" stroke-linejoin="miter" fill="none" stroke="#7a6f62" d="M35.85872 35.85872 57.17654 57.17654"/>
<path transform="matrix(.7071,-.7071,-.7071,-.7071,71.18312,98.638889)" d="M6.23575 0 .64343 2.10364 2.47467 0 .64343-2.10364Z" fill="#7a6f62"/>
<path transform="matrix(.7071,-.7071,-.7071,-.7071,71.18312,98.638889)" stroke-width=".3985" stroke-linecap="butt" stroke-miterlimit="10" stroke-linejoin="miter" fill="none" stroke="#7a6f62" d="M6.23575 0 .64343 2.10364 2.47467 0 .64343-2.10364Z"/>
<use data-text="h" xlink:href="#font_3_5" transform="matrix(7.9701,0,0,-7.9701,41.687,88.759998)" fill="#7a6f62"/>
<use data-text="i" xlink:href="#font_3_6" transform="matrix(7.9701,0,0,-7.9701,46.38936,88.759998)" fill="#7a6f62"/>
<use data-text="g" xlink:href="#font_3_4" transform="matrix(7.9701,0,0,-7.9701,48.74054,88.759998)" fill="#7a6f62"/>
<use data-text="h" xlink:href="#font_3_5" transform="matrix(7.9701,0,0,-7.9701,52.972665,88.759998)" fill="#7a6f62"/>
<use data-text="e" xlink:href="#font_3_3" transform="matrix(7.9701,0,0,-7.9701,57.675024,88.759998)" fill="#7a6f62"/>
<use data-text="r" xlink:href="#font_3_7" transform="matrix(7.9701,0,0,-7.9701,61.43691,88.759998)" fill="#7a6f62"/>
<use data-text="u" xlink:href="#font_2_5" transform="matrix(7.9701,0,0,-7.9701,67.57,88.759998)" fill="#7a6f62"/>
<path transform="matrix(1,0,0,-1,15.686,154.136)" stroke-width="1.19553" stroke-linecap="butt" stroke-miterlimit="10" stroke-linejoin="miter" fill="none" stroke="#a03a2c" d="M0 97.79599 195.592 0"/>
<use data-text="p" xlink:href="#font_2_4" transform="matrix(7.1278998,3.5647867,3.5647867,-7.1278998,90.951,87.623)" fill="#a03a2c"/>
<use data-text="x" xlink:href="#font_4_1" transform="matrix(5.3459475,2.6736012,2.6736012,-5.3459475,94.31715,90.42001)" fill="#a03a2c"/>
<use data-text="x" xlink:href="#font_2_6" transform="matrix(7.1278998,3.5647867,3.5647867,-7.1278998,98.939159,91.61801)" fill="#a03a2c"/>
<use data-text="+" xlink:href="#font_3_1" transform="matrix(7.1278998,3.5647867,3.5647867,-7.1278998,104.88555,94.59191)" fill="#a03a2c"/>
<use data-text="p" xlink:href="#font_2_4" transform="matrix(7.1278998,3.5647867,3.5647867,-7.1278998,112.45875,98.379398)" fill="#a03a2c"/>
<use data-text="y" xlink:href="#font_4_2" transform="matrix(5.3459475,2.6736012,2.6736012,-5.3459475,115.8258,101.176868)" fill="#a03a2c"/>
<use data-text="y" xlink:href="#font_2_7" transform="matrix(7.1278998,3.5647867,3.5647867,-7.1278998,120.29308,102.297489)" fill="#a03a2c"/>
<use data-text="=" xlink:href="#font_3_2" transform="matrix(7.1278998,3.5647867,3.5647867,-7.1278998,126.39599,105.349658)" fill="#a03a2c"/>
<use data-text="m" xlink:href="#font_2_3" transform="matrix(7.1278998,3.5647867,3.5647867,-7.1278998,134.39038,109.34779)" fill="#a03a2c"/>
<path transform="matrix(1,0,0,-1,15.686,154.136)" d="M197.98305 0C197.98305 1.32054 196.91254 2.39105 195.592 2.39105 194.27144 2.39105 193.20093 1.32054 193.20093 0 193.20093-1.32054 194.27144-2.39105 195.592-2.39105 196.91254-2.39105 197.98305-1.32054 197.98305 0ZM195.592 0" fill="#5a1ba6"/>
<use data-text="o" xlink:href="#font_5_3" transform="matrix(8.9664,0,0,-8.9664,214.795,147.243)" fill="#5a1ba6"/>
<use data-text="p" xlink:href="#font_5_4" transform="matrix(8.9664,0,0,-8.9664,219.40373,147.243)" fill="#5a1ba6"/>
<use data-text="t" xlink:href="#font_5_5" transform="matrix(8.9664,0,0,-8.9664,224.52355,147.243)" fill="#5a1ba6"/>
<use data-text="i" xlink:href="#font_5_1" transform="matrix(8.9664,0,0,-8.9664,228.1101,147.243)" fill="#5a1ba6"/>
<use data-text="m" xlink:href="#font_5_2" transform="matrix(8.9664,0,0,-8.9664,230.6745,147.243)" fill="#5a1ba6"/>
<use data-text="u" xlink:href="#font_5_6" transform="matrix(8.9664,0,0,-8.9664,238.09868,147.243)" fill="#5a1ba6"/>
<use data-text="m" xlink:href="#font_5_2" transform="matrix(8.9664,0,0,-8.9664,243.21849,147.243)" fill="#5a1ba6"/>
</svg>
