<svg xmlns="http://www.w3.org/2000/svg" xmlns:xlink="http://www.w3.org/1999/xlink" xmlns:inkscape="http://www.inkscape.org/namespaces/inkscape" version="1.1" width="288.266" height="186.14" viewBox="0 0 288.266 186.14">
<defs>
<path id="font_1_6" d="M.46099855 .40837098C.46499635 .42237855 .46499635 .42437745 .46499635 .42837525 .46499635 .44036866 .45498658 .4423828 .45298768 .4423828 .44299317 .4423828 .40499879 .40837098 .3849945 .3733673 .36898805 .40937806 .33799745 .4423828 .2869873 .4423828 .17098999 .4423828 .041992189 .30433656 .041992189 .1512909 .041992189 .041259767 .11199951-.0107421879 .1789856-.0107421879 .22200012-.0107421879 .26098634 .011245728 .2979889 .04626465L.2599945-.10812378C.24699402-.15933228 .24598694-.16233826 .18299866-.16334534 .17098999-.16334534 .15899658-.16334534 .15899658-.18135071 .15899658-.18334961 .15899658-.19433594 .17298889-.19433594 .19499207-.19433594 .2519989-.19134522 .27398683-.19134522 .30699159-.19134522 .30899049-.19134522 .32499696-.19233704 .33799745-.19334412 .3659973-.19433594 .37799073-.19433594 .38398744-.19433594 .39698792-.19433594 .39698792-.17634583 .39698792-.16334534 .3869934-.16334534 .36999513-.16334534 .32299806-.16334534 .32299806-.15631104 .32299806-.14727783 .32299806-.14627075 .32299806-.14025879 .32699586-.12519837L.46099855 .40837098M.31698609 .122283939C.31199647 .103271488 .31199647 .10227966 .29599 .08326721 .2599945 .040252687 .21899414 .014251709 .18199158 .014251709 .1329956 .014251709 .115997318 .06526184 .115997318 .10827637 .115997318 .15730286 .14498902 .27233888 .16899109 .32034303 .20098877 .3803711 .24699402 .41737367 .2869873 .41737367 .35398866 .41737367 .36898805 .33735658 .36898805 .33035279 .36898805 .3253479 .36698915 .3193512 .3659973 .31533814L.31698609 .122283939Z"/>
<path id="font_2_6" d="M.18099976 .3363495C.21499634 .3943634 .269989 .41436769 .31199647 .41436769 .3899994 .41436769 .44999696 .32434083 .44999696 .2163086 .44999696 .10227966 .38198854 .014251709 .30099488 .014251709 .2559967 .014251709 .21798706 .040252687 .19400025 .07527161 .18099976 .09527588 .18099976 .09727478 .18099976 .11628723V.3363495M.18099976 .04826355C.20698548 .022247315 .24099732-.0107421879 .30699159-.0107421879 .42599488-.0107421879 .5359955 .08526611 .5359955 .2163086 .5359955 .3423462 .43798829 .4423828 .31999208 .4423828 .2659912 .4423828 .21598816 .42037965 .17799378 .379364V.4416504L.02999878 .43066407V.3996582C.100997928 .3996582 .10699463 .3936615 .10699463 .35066224V-.11734009C.10699463-.16334534 .09599304-.16334534 .02999878-.16334534V-.19433594C.07699585-.19233704 .09599304-.19134522 .14399719-.19134522 .19198609-.19134522 .20498657-.19233704 .2579956-.19433594V-.16334534C.19198609-.16334534 .18099976-.16334534 .18099976-.11734009V.04826355Z"/>
<path id="font_2_7" d="M.17799378 .22918701C.17799378 .27023316 .18899536 .41737367 .30299378 .41737367V.41636659C.30099488 .41537477 .2849884 .4033661 .2849884 .3793335 .2849884 .35231019 .30599977 .33529664 .32899476 .33529664 .34999085 .33529664 .37298585 .35031129 .37298585 .38034059 .37298585 .41236878 .34298707 .4423828 .2979889 .4423828 .23799134 .4423828 .19599915 .4003601 .17298889 .3383026H.17199707V.4416504L.02999878 .43066407V.3996582C.09799194 .3996582 .10699463 .39266969 .10699463 .34370423V.07695007C.10699463 .0309906 .09599304 .0309906 .02999878 .0309906V0C.08299255 .0019989014 .09599304 .0029907227 .14698792 .0029907227 .18699646 .0029907227 .21099854 .0019989014 .27398683 0V.0309906H.2539978C.18099976 .0309906 .17799378 .04197693 .17799378 .078948978V.22918701Z"/>
<path id="font_2_4" d="M.18399048 .4423828 .039993287 .43138124V.40037538C.10398865 .40037538 .11299133 .3943634 .11299133 .34532167V.077041629C.11299133 .0309906 .101989749 .0309906 .035995485 .0309906V0C.08099365 .0019989014 .101989749 .0029907227 .1459961 .0029907227 .1619873 .0029907227 .20399475 .0029907227 .25299073 0V.0309906C.18798828 .0309906 .18399048 .035995485 .18399048 .075042728V.4423828M.18699646 .615921C.18699646 .6459198 .16299439 .6699219 .1329956 .6699219 .101989749 .6699219 .07899475 .6449127 .07899475 .615921 .07899475 .58691409 .101989749 .56192019 .1329956 .56192019 .16299439 .56192019 .18699646 .585907 .18699646 .615921Z"/>
<path id="font_2_2" d="M.3639984 .39356996C.34298707 .3895874 .32299806 .3755951 .32299806 .34658814 .32299806 .32058717 .34298707 .30059815 .36898805 .30059815 .394989 .30059815 .41600038 .31759645 .41600038 .34858705 .41600038 .4103546 .34599305 .4482422 .2579956 .4482422 .12998963 .4482422 .033996583 .3415985 .033996583 .2164917 .033996583 .08734131 .13798523-.0107421879 .2559967-.0107421879 .394989-.0107421879 .4269867 .11036682 .4269867 .11936951 .4269867 .13139344 .41600038 .13139344 .41299439 .13139344 .4019928 .13139344 .4019928 .12937927 .3959961 .11236572 .37298585 .043289186 .31698609 .01725769 .2659912 .01725769 .20199585 .01725769 .11999512 .06932068 .11999512 .21749878 .11999512 .3735962 .19999695 .42022706 .2599945 .42022706 .272995 .42022706 .32699586 .41825868 .3639984 .39356996Z"/>
<path id="font_2_3" d="M.3999939 .22949219C.42199708 .22949219 .4269867 .22949219 .4269867 .25048829 .4269867 .35333253 .37098695 .4482422 .24299622 .4482422 .12298584 .4482422 .0289917 .3443451 .0289917 .22047425 .0289917 .08932495 .13398743-.0107421879 .2559967-.0107421879 .37799073-.0107421879 .4269867 .096343997 .4269867 .11936951 .4269867 .12637329 .42199708 .13237 .41299439 .13237 .40299989 .13237 .3999939 .12536621 .39898683 .12136841 .36499024 .019256592 .27598573 .01725769 .26098634 .01725769 .21299744 .01725769 .17199707 .044281007 .14898682 .078323367 .115997318 .12736511 .114990238 .18743897 .114990238 .22949219H.3999939M.115997318 .253479C.125 .40725709 .21499634 .42323304 .24299622 .42323304 .2979889 .42323304 .35798646 .38130189 .35899354 .253479H.115997318Z"/>
<path id="font_2_1" d="M.18199158 .015991211C.18199158-.017044068 .18199158-.09921265 .10598755-.17137146 .101989749-.17636109 .101989749-.18037415 .101989749-.18136597 .101989749-.18637085 .10798645-.19335938 .114990238-.19335938 .12599182-.19335938 .20698548-.116256717 .20698548 .0019989014 .20698548 .070999149 .18099976 .10798645 .14199829 .10798645 .10699463 .10798645 .08799744 .08099365 .08799744 .053985597 .08799744 .026992798 .10699463 0 .14199829 0 .16699219 0 .18199158 .01499939 .18199158 .015991211Z"/>
<path id="font_2_5" d="M.48399354 .21324158C.48399354 .34423829 .37998963 .4482422 .25698854 .4482422 .12998963 .4482422 .0289917 .3412323 .0289917 .21324158 .0289917 .08824158 .1329956-.0107421879 .2559967-.0107421879 .3829956-.0107421879 .48399354 .09024048 .48399354 .21324158M.25698854 .01725769C.20698548 .01725769 .16499329 .042251588 .14199829 .08125305 .115997318 .12324524 .114990238 .17623902 .114990238 .22224427 .114990238 .25924684 .114990238 .3162384 .13999939 .35723878 .16999817 .40823365 .21998596 .42323304 .2559967 .42323304 .31298829 .42323304 .35398866 .39123536 .37399293 .35723878 .39698792 .31523133 .397995 .26423646 .397995 .22224427 .397995 .1852417 .397995 .12724304 .37298585 .08325195 .34498597 .037246705 .29899598 .01725769 .25698854 .01725769Z"/>
<path id="font_2_8" d="M.34399415 .42222596C.34399415 .4392395 .34399415 .4482422 .33198548 .4482422 .32699586 .4482422 .32499696 .4482422 .31199647 .43623353 .30999757 .43423463 .30099488 .42523194 .29499818 .42022706 .2639923 .44223023 .23298645 .4482422 .19898987 .4482422 .066986087 .4482422 .033996583 .37522889 .033996583 .324234 .033996583 .29223634 .04798889 .26623536 .070999149 .24424744 .10499573 .21324158 .14299011 .2062378 .19400025 .1972351 .24499512 .1872406 .2619934 .18424988 .28399659 .16723633 .2939911 .15924073 .31900025 .14024353 .31900025 .102249149 .31900025 .014251709 .21798706 .014251709 .20399475 .014251709 .101989749 .014251709 .07598877 .099243167 .06399536 .15324402 .06098938 .16323853 .05999756 .16925049 .04798889 .16925049 .033996583 .16925049 .033996583 .16123963 .033996583 .14324951V.01524353C.033996583-.0017547608 .033996583-.0107421879 .04598999-.0107421879 .051986696-.0107421879 .052993776-.009750366 .070999149 .009246826 .07499695 .01524353 .085998538 .028244019 .09098816 .0332489 .1329956-.007751465 .1789856-.0107421879 .20399475-.0107421879 .32699586-.0107421879 .36999513 .06124878 .36999513 .12825012 .36999513 .17324829 .34999085 .20024109 .32798768 .22323609 .2939911 .25624085 .2579956 .26324464 .18399048 .27723695 .1579895 .28224183 .084991458 .2952423 .084991458 .3522339 .084991458 .38423158 .10798645 .426239 .19898987 .426239 .30699159 .426239 .31399537 .3432312 .31599427 .3182373 .31698609 .3062439 .31698609 .30023194 .32998658 .30023194 .34399415 .30023194 .34399415 .30723573 .34399415 .3262329V.42222596Z"/>
<path id="font_2_9" d="M.32499696 .3996582V.43066407H.17999268V.6147156H.1519928C.15098572 .5307007 .115997318 .42765809 .018997193 .4246521V.3996582H.10598755V.12408447C.10598755 .012252808 .18699646-.0107421879 .23999024-.0107421879 .30699159-.0107421879 .34199525 .05319214 .34199525 .12408447V.18099976H.31399537V.1270752C.31399537 .05319214 .2829895 .01725769 .24699402 .01725769 .17999268 .01725769 .17999268 .1051178 .17999268 .12309265V.3996582H.32499696Z"/>
<path id="font_1_3" d="M.94699099 .6056366C.95599368 .64260867 .95899966 .6516113 1.0369873 .6516113 1.0529938 .6516113 1.0639954 .6516113 1.0639954 .6696167 1.0639954 .6826172 1.0540009 .6826172 1.0349884 .6826172H.9039917C.8789978 .6826172 .875 .6826172 .86299136 .66360476L.49398805 .093948367 .41099549 .6566162C.40699769 .6826172 .4059906 .6826172 .37799073 .6826172H.24099732C.22299195 .6826172 .21099854 .6826172 .21099854 .6646118 .21099854 .6516113 .22099304 .6516113 .24099732 .6516113 .24499512 .6516113 .2630005 .6516113 .2789917 .6496124 .2979889 .6476135 .30299378 .64460757 .30299378 .63461306 .30299378 .6296234 .3019867 .6256256 .29899598 .614624L.17199707 .10594177C.15899658 .053985597 .1309967 .033996583 .06498718 .0309906 .06199646 .0309906 .04798889 .02999878 .04798889 .0129852299 .04798889 .010986328 .04798889 0 .06199646 0 .07398987 0 .09899902 .0009918213 .11199951 .0019989014 .12799073 .0029907227 .12998963 .0029907227 .1619873 .0029907227 .18699646 .0029907227 .18899536 .0029907227 .21299744 .0019989014 .22898865 .0019989014 .25 0 .2649994 0 .269989 0 .2829895 0 .2829895 .017990113 .2829895 .02999878 .27198792 .0309906 .2630005 .0309906 .21598816 .03199768 .19799805 .04698181 .19799805 .07395935 .19799805 .080963138 .19898987 .081954959 .20199585 .095947269L.33699037 .6396179H.33799745L.42900086 .025985718C.43099977 .009994507 .43299867 0 .44599916 0 .45799256 0 .46398927 .009994507 .46998597 .018997193L.8769989 .64660647H.8779907L.7350006 .07595825C.7259979 .039993287 .723999 .0309906 .6489868 .0309906 .6309967 .0309906 .61898806 .0309906 .61898806 .0129852299 .61898806 .0039978029 .6259918 0 .6339874 0 .6459961 0 .68499758 .0009918213 .69699099 .0019989014 .71199038 .0029907227 .7369995 .0029907227 .7569885 .0029907227 .7599945 .0029907227 .7999878 .0019989014 .82099917 .0019989014 .84098818 .0019989014 .86299136 0 .8819885 0 .8880005 0 .901001 0 .901001 .017990113 .901001 .0309906 .8909912 .0309906 .8699951 .0309906 .8659973 .0309906 .84799197 .0309906 .83200076 .032989503 .80999758 .035995485 .8089905 .039993287 .8089905 .048980714 .8089905 .05796814 .8109894 .065963748 .8129883 .07296753L.94699099 .6056366Z"/>
<path id="font_1_2" d="M.7739868 .67807009C.7769928 .6900635 .7769928 .69207766 .7769928 .69407656 .7769928 .69506838 .776001 .7050781 .7649994 .7050781 .7589874 .7050781 .7559967 .70207217 .7489929 .69407656L.6879883 .6270294C.6839905 .62202456 .6799927 .61802676 .67900088 .61802676 .6779938 .61802676 .6769867 .61901858 .67099 .62602236 .6559906 .64604189 .61099246 .7050781 .5069885 .7050781 .27799989 .7050781 .050994874 .48291017 .050994874 .25473023 .050994874 .09159851 .16999817-.022460938 .33099366-.022460938 .43499757-.022460938 .5169983 .031555177 .55599978 .0665741 .6469879 .14764405 .6639862 .23571778 .6639862 .23971558 .6639862 .24372864 .6619873 .25073243 .6499939 .25073243 .6389923 .25073243 .6369934 .24472046 .6359863 .24072266 .58699038 .079589847 .44400025 .008529663 .34399415 .008529663 .24699402 .008529663 .14399719 .06758118 .14399719 .21870423 .14399719 .2637329 .15899658 .42185975 .2599945 .54496768 .31999208 .61701968 .41799928 .67407229 .5139923 .67407229 .625 .67407229 .6839905 .5890045 .6839905 .47891236 .6839905 .44488526 .68099978 .43788148 .68099978 .4298706 .68099978 .41886903 .69299319 .41886903 .69599917 .41886903 .70899966 .41886903 .70899966 .42086793 .71398928 .43988038L.7739868 .67807009Z"/>
<path id="font_1_1" d="M.18199158 .116867069C.1329956 .036987306 .08898926 .033981325 .04899597 .0309906 .041992189 .02999878 .036987306 .021987915 .036987306 .0129852299 .036987306 .0069885256 .040985109 0 .050994874 0 .069992069 0 .116989139 .0029907227 .13598633 .0029907227 .1579895 .0029907227 .21199036 0 .23399353 0 .23999024 0 .25299073 0 .25299073 .017990113 .25299073 .02999878 .24099732 .0309906 .23799134 .0309906 .22898865 .03199768 .19099427 .033981325 .19099427 .063949588 .19099427 .077926639 .20199585 .09689331 .20498657 .101882938L.28399659 .23068238H.54499819C.5479889 .2077179 .5509949 .17378235 .55400088 .14881897 .55799868 .10987854 .56399539 .06593323 .56399539 .062942508 .56399539 .047973634 .5499878 .0309906 .49198915 .0309906 .48199464 .0309906 .46899415 .0309906 .46899415 .0129852299 .46899415 .0019989014 .47698976 0 .48399354 0 .5029907 0 .5269928 .0019989014 .5469971 .0019989014 .5669861 .0019989014 .59098818 .0029907227 .6069946 .0029907227 .6399994 .0029907227 .6419983 .0029907227 .66600039 .0019989014 .6819916 .0009918213 .7049866 0 .72099307 0 .72698977 0 .73999026 0 .73999026 .017990113 .73999026 .0309906 .72898867 .0309906 .71699526 .0309906 .6569977 .0309906 .6559906 .037979127 .6529999 .06694031L.58299258 .68881228C.58099368 .7108154 .5799866 .7158203 .5629883 .7158203 .548996 .7158203 .54299929 .7088165 .5349884 .69581606L.18199158 .116867069M.30299378 .26168824 .5049896 .5917816 .5419922 .26168824H.30299378Z"/>
<path id="font_1_4" d="M.6459961 .5646057C.68699648 .6286011 .7220001 .6476135 .7679901 .6516113 .7799988 .65260317 .78900149 .6536102 .78900149 .6696167 .78900149 .6776123 .7829895 .6826172 .776001 .6826172 .7719879 .6826172 .746994 .6796112 .69400027 .6796112 .6619873 .6796112 .6279907 .6826172 .5970001 .6826172 .58999636 .6826172 .57899478 .680603 .57899478 .6646118 .57899478 .65260317 .58999636 .6516113 .59298709 .6516113 .6029968 .65060427 .6389923 .64860537 .6389923 .61961367 .6389923 .6116028 .6359863 .604599 .6319885 .5966034 .6279907 .5886078 .6259918 .58461 .621994 .5776062L.30899049 .092544559 .23298645 .62161257C.23298645 .63061526 .23999024 .6516113 .3019867 .6516113 .31399537 .6516113 .32598878 .6516113 .32598878 .6696167 .32598878 .680603 .31599427 .6826172 .30999757 .6826172 .2919922 .6826172 .2709961 .680603 .2519989 .680603 .23199463 .680603 .20999146 .6796112 .18899536 .6796112 .17098999 .6796112 .14299011 .6796112 .13398743 .680603 .12599182 .680603 .084991458 .6826172 .07699585 .6826172 .07299805 .6826172 .05899048 .6826172 .05899048 .6646118 .05899048 .6516113 .069992069 .6516113 .08198547 .6516113 .13798523 .6516113 .13899231 .64260867 .14299011 .6175995L.23098755 .0035247803C.23399353-.015472412 .23498535-.022460938 .2519989-.022460938 .2679901-.022460938 .27398683-.014465332 .2809906-.0024719239L.6459961 .5646057Z"/>
<path id="font_1_5" d="M.04598999-.12519837C.038986207-.15431214 .036987306-.16334534-.006011963-.16334534-.01701355-.16334534-.029006958-.16334534-.029006958-.18135071-.029006958-.18534851-.027008057-.19433594-.01600647-.19433594L.026992798-.19233704C.032989503-.19134522 .055999757-.19134522 .069992069-.19134522 .08699036-.19134522 .10398865-.19233704 .12098694-.19233704 .13699341-.19233704 .1539917-.19433594 .16899109-.19433594 .1749878-.19433594 .18798828-.19433594 .18798828-.17634583 .18798828-.16334534 .17799378-.16334534 .16099549-.16334534 .11399841-.16334534 .11399841-.15631104 .11399841-.14727783 .11399841-.14125061 .12098694-.114151 .125-.098083499L.1619873 .051254274C.17199707 .030258179 .19999695-.0107421879 .25698854-.0107421879 .37399293-.0107421879 .5019989 .13027954 .5019989 .28033448 .5019989 .38237 .43899537 .4423828 .3639984 .4423828 .34298707 .4423828 .29299928 .43737794 .23199463 .3693695 .21699524 .42536927 .17098999 .4423828 .13699341 .4423828 .09498596 .4423828 .07398987 .41137696 .05999756 .3843689 .042999269 .34934999 .0289917 .29234315 .0289917 .28833009 .0289917 .2793274 .035995485 .27633668 .042999269 .27633668 .053985597 .27633668 .055999757 .28134156 .06098938 .30134584 .07998657 .3803711 .100997928 .41737367 .1349945 .41737367 .16499329 .41737367 .16499329 .38536073 .16499329 .37036134 .16499329 .36236573 .1639862 .34735108 .1619873 .33935548L.04598999-.12519837M.22698975 .3083496C.23199463 .32835389 .23199463 .33035279 .24499512 .34535218 .27198792 .379364 .31698609 .41737367 .3619995 .41737367 .40899659 .41737367 .42799378 .37036134 .42799378 .323349 .42799378 .27833558 .3999939 .15429688 .36898805 .10127258 .33499146 .044265748 .29299928 .014251709 .2559967 .014251709 .19099427 .014251709 .1749878 .09327698 .1749878 .10028076 .1749878 .106277469 .1769867 .11128235 .17799378 .11628723L.22698975 .3083496Z"/>
<path id="font_3_5" d="M.051986696-.1211853C.04399109-.15332031 .041992189-.16134644 .0019989014-.16134644-.012008667-.16134644-.024002076-.16134644-.024002076-.18034363-.024002076-.18934632-.015014648-.19433594-.010009766-.19433594 0-.19433594 .0039978029-.19134522 .07798767-.19134522 .1499939-.19134522 .17098999-.19433594 .17799378-.19433594 .18199158-.19433594 .19699097-.19433594 .19699097-.17533875 .19699097-.16134644 .18299866-.16134644 .17098999-.16134644 .12298584-.16134644 .12298584-.15531922 .12298584-.14628601 .12298584-.13926697 .14099121-.067993167 .17098999 .049240114 .18399048 .026229859 .21499634-.009765625 .2689972-.009765625 .3919983-.009765625 .519989 .13227844 .519989 .27734376 .519989 .37638856 .45599366 .44140626 .37599183 .44140626 .31599427 .44140626 .2679901 .40039063 .23899842 .3703766 .21798706 .44140626 .15098572 .44140626 .14099121 .44140626 .10499573 .44140626 .07998657 .418396 .06399536 .38739015 .040985109 .34236146 .02999878 .29135133 .02999878 .28834535 .02999878 .27934266 .036987306 .27534486 .04499817 .27534486 .057998659 .27534486 .05899048 .27934266 .06599426 .3053589 .07899475 .35636903 .09700012 .4133911 .13798523 .4133911 .16299439 .4133911 .16999817 .39038087 .16999817 .36637879 .16999817 .35636903 .1659851 .33236695 .1639862 .32435609L.051986696-.1211853M.23599243 .3083496C.24099732 .32536317 .24099732 .32736207 .2559967 .34536744 .2939911 .39038087 .33699037 .4133911 .37298585 .4133911 .4229889 .4133911 .44198609 .36437989 .44198609 .3193512 .44198609 .28234864 .41999818 .17529297 .3899994 .11627197 .3639984 .0622406 .31599427 .018234253 .2689972 .018234253 .20098877 .018234253 .18499756 .0962677 .18499756 .103256229 .18499756 .105270389 .18699646 .11627197 .18798828 .119277957L.23599243 .3083496Z"/>
<path id="font_4_6" d="M.73098757 .3330078C.74598696 .3330078 .7659912 .3330078 .7659912 .3560028 .7659912 .3789978 .74198916 .3789978 .72698977 .3789978H.09799194C.08299255 .3789978 .05899048 .3789978 .05899048 .3560028 .05899048 .3330078 .07899475 .3330078 .09399414 .3330078H.73098757M.72698977 .12098694C.74198916 .12098694 .7659912 .12098694 .7659912 .14398194 .7659912 .16699219 .74598696 .16699219 .73098757 .16699219H.09399414C.07899475 .16699219 .05899048 .16699219 .05899048 .14398194 .05899048 .12098694 .08299255 .12098694 .09799194 .12098694H.72698977Z"/>
<path id="font_3_3" d="M.97099307 .6016388C.98098757 .64060977 .9830017 .6496124 1.0529938 .6496124 1.0759888 .6496124 1.0879974 .6496124 1.0879974 .6686096 1.0879974 .6826172 1.074997 .6826172 1.0569916 .6826172H.9279938C.901001 .6826172 .897995 .6826172 .8849945 .6626129L.5079956 .09194946 .4189911 .65560916C.4149933 .680603 .4139862 .6826172 .38398744 .6826172H.24899292C.23098755 .6826172 .21798706 .6826172 .21798706 .66360476 .21798706 .6496124 .23098755 .6496124 .24699402 .6496124 .27999879 .6496124 .30899049 .6496124 .30899049 .6336212 .30899049 .6296234 .30799867 .62861636 .30499269 .6156311L.17799378 .10694885C.1659851 .05697632 .13999939 .034988405 .07299805 .032989503 .066986087 .032989503 .054992677 .03199768 .054992677 .01399231 .054992677 .0079956059 .05999756 0 .069992069 0 .07398987 0 .09700012 .0029907227 .16899109 .0029907227 .24798584 .0029907227 .2630005 0 .27198792 0 .27598573 0 .29100038 0 .29100038 .018997193 .29100038 .0309906 .27999879 .032989503 .272995 .032989503 .23699951 .033996583 .20698548 .039993287 .20698548 .07496643 .20698548 .079956058 .20999146 .093948367 .20999146 .094955448L.34599305 .637619H.34700013L.44400025 .026992798C.44699098 .010986328 .44799806 0 .46199037 0 .47599793 0 .48298646 .010986328 .4889984 .019989014L.8999939 .6456146 .901001 .64460757 .7599945 .07896423C.7509918 .040985109 .7489929 .032989503 .6749878 .032989503 .6559906 .032989503 .6439972 .032989503 .6439972 .01399231 .6439972 .009994507 .6469879 0 .6599884 0 .6729889 0 .7029877 .0019989014 .71699526 .0029907227H.7809906C.8739929 .0029907227 .897995 0 .9049988 0 .9109955 0 .9249878 0 .9249878 .018997193 .9249878 .032989503 .9119873 .032989503 .894989 .032989503 .8919983 .032989503 .8739929 .032989503 .8569946 .034988405 .83599856 .036987306 .83399966 .039993287 .83399966 .048980714 .83399966 .053985597 .83599856 .0599823 .83699038 .064971927L.97099307 .6016388Z"/>
<path id="font_3_2" d="M.79599 .6770935C.7969971 .6810913 .798996 .687088 .798996 .6920929 .798996 .6990967 .79299929 .70410159 .7859955 .70410159 .7789917 .70410159 .776001 .7010956 .7679901 .6920929L.69799807 .61505129C.68899539 .628067 .6359863 .70410159 .5189972 .70410159 .2869873 .70410159 .052993776 .48893739 .052993776 .25872804 .052993776 .08457947 .18499756-.021484375 .34399415-.021484375 .47499085-.021484375 .58599856 .058547975 .6399994 .1366272 .6729889 .18566895 .6859894 .23370362 .6859894 .23971558 .6859894 .24871826 .6799927 .25273133 .67099 .25273133 .6589966 .25273133 .6569977 .24772644 .6539917 .2367096 .6119995 .098587039 .47698976 .011505127 .35699464 .011505127 .25498963 .011505127 .147995 .07156372 .147995 .22470093 .147995 .25672914 .15899658 .4238739 .269989 .548996 .34498597 .6330719 .44699098 .6710968 .526001 .6710968 .6519928 .6710968 .70399478 .5700073 .70399478 .4749298 .70399478 .46090699 .69999697 .44189454 .69999697 .42988587 .69999697 .41687013 .71299746 .41687013 .71699526 .41687013 .7299957 .41687013 .7319946 .42086793 .73599246 .43888856L.79599 .6770935Z"/>
<path id="font_4_4" d="M.18699646 .01499939C.18699646-.015029907 .18699646-.09719849 .11099243-.16833496 .10798645-.17134094 .10499573-.17333985 .10499573-.17933655 .10499573-.18833924 .11399841-.19433594 .11898804-.19433594 .13198853-.19433594 .21499634-.1162262 .21499634 .0039978029 .21499634 .05899048 .19499207 .11099243 .14698792 .11099243 .11399841 .11099243 .09199524 .084991458 .09199524 .055999757 .09199524 .025985718 .11299133 0 .147995 0 .16999817 0 .18399048 .011993408 .18699646 .01499939Z"/>
<path id="font_4_17" d="M.2630005-.16134644C.19898987-.16134644 .18699646-.16134644 .18699646-.11618042V.049240114C.23399353-.0017700195 .2849884-.009765625 .31698609-.009765625 .44400025-.009765625 .55400088 .088256839 .55400088 .2163086 .55400088 .34136964 .45298768 .44140626 .33198548 .44140626 .29299928 .44140626 .23498535 .43139649 .18399048 .37937928V.44140626L.034988405 .43040467V.39738465C.10598755 .39738465 .11099243 .39138795 .11099243 .34936524V-.11618042C.11099243-.16134644 .09899902-.16134644 .034988405-.16134644V-.19433594C.07798767-.19134522 .12199402-.19134522 .14898682-.19134522 .17799378-.19134522 .21998596-.19134522 .2630005-.19433594V-.16134644M.18699646 .33335877C.20999146 .37338258 .2599945 .4104004 .32299806 .4104004 .3999939 .4104004 .46499635 .32536317 .46499635 .2163086 .46499635 .101257327 .3929901 .018234253 .31199647 .018234253 .2769928 .018234253 .23098755 .033233644 .19898987 .08325195 .18699646 .1002655 .18699646 .101257327 .18699646 .120269779V.33335877Z"/>
<path id="font_4_18" d="M.18399048 .22821045C.18399048 .30329896 .21499634 .4113922 .31098939 .4133911 .30499269 .4093933 .29499818 .4013977 .29499818 .3783722 .29499818 .34735108 .31900025 .33332826 .33898927 .33332826 .36299134 .33332826 .38398744 .34934999 .38398744 .3783722 .38398744 .4133911 .35198976 .44140626 .30799867 .44140626 .24299622 .44140626 .19898987 .39239503 .17799378 .33633424H.1769867V.44140626L.034988405 .43040467V.3973999C.102996829 .3973999 .11099243 .39039613 .11099243 .3413391V.078048709C.11099243 .032989503 .09899902 .032989503 .034988405 .032989503V0C.07398987 .0029907227 .1289978 .0029907227 .15299988 .0029907227 .21199036 .0029907227 .21398926 .0029907227 .2789917 0V.032989503H.25898744C.18598938 .032989503 .18399048 .044006349 .18399048 .08004761V.22821045Z"/>
<path id="font_4_16" d="M.5 .21325684C.5 .3382721 .39698792 .44628907 .2649994 .44628907 .1329956 .44628907 .02999878 .3382721 .02999878 .21325684 .02999878 .08824158 .13699341-.009765625 .2649994-.009765625 .3939972-.009765625 .5 .08824158 .5 .21325684M.2649994 .021224976C.21099854 .021224976 .16899109 .047225954 .14698792 .082229617 .12199402 .12324524 .11898804 .17224121 .11898804 .22225952 .11898804 .2602539 .11898804 .32026673 .1499939 .363266 .17599488 .3982849 .21798706 .41827394 .2649994 .41827394 .31698609 .41827394 .3600006 .39328004 .3829956 .35827638 .4099884 .31626893 .41099549 .2622528 .41099549 .22225952 .41099549 .17625427 .40899659 .12124634 .3809967 .07923889 .35398866 .039230348 .30899049 .021224976 .2649994 .021224976Z"/>
<path id="font_4_1" d="M.34700013 .4336548C.33599855 .43266297 .33099366 .43266297 .32899476 .43165589 .32699586 .43066407 .32499696 .43066407 .31098939 .43066407H.18099976V.5397186C.18099976 .6387329 .27398683 .6760864 .33599855 .6760864 .3659973 .6760864 .3959961 .6689911 .42099 .6497345 .4189911 .6497345 .37998963 .64172366 .37998963 .60072329 .37998963 .5687256 .4059906 .5527344 .42799378 .5527344 .44198609 .5527344 .47599793 .5617218 .47599793 .60272219 .47599793 .6558075 .42399598 .70410159 .33898927 .70410159 .24099732 .70410159 .11099243 .6548004 .11099243 .5407257V.43066407H.0289917V.3976593H.11099243V.07795715C.11099243 .032989503 .09899902 .032989503 .034988405 .032989503V0C.07398987 .0029907227 .12998963 .0029907227 .14698792 .0029907227 .16699219 .0029907227 .22099304 .0029907227 .2599945 0V.032989503C.19599915 .032989503 .18399048 .032989503 .18399048 .07795715V.3976593H.35598756C.397995 .3976593 .40499879 .3856659 .40499879 .34370423V.07795715C.40499879 .032989503 .3929901 .032989503 .32899476 .032989503V0C.36799623 .0029907227 .42399598 .0029907227 .44099427 .0029907227 .46099855 .0029907227 .5149994 .0029907227 .55400088 0V.032989503C.48999024 .032989503 .47799684 .032989503 .47799684 .07795715V.44265748L.34700013 .4336548Z"/>
<path id="font_4_20" d="M.18598938 .3976593H.33499146V.43066407H.18598938V.6147156H.15499878C.1539917 .5236969 .11299133 .4286499 .019989014 .42565919V.3976593H.10998535V.1250763C.10998535 .008224487 .19999695-.009765625 .24598694-.009765625 .31298829-.009765625 .35299684 .050186159 .35299684 .1250763V.1809845H.32199098V.12705994C.32199098 .058166505 .29100038 .021224976 .25299073 .021224976 .18598938 .021224976 .18598938 .10710144 .18598938 .12307739V.3976593Z"/>
<path id="font_4_14" d="M.7809906 .3032837C.7809906 .3843689 .74598696 .44140626 .6369934 .44140626 .54499819 .44140626 .49899293 .37835694 .48298646 .34933473 .46499635 .42140199 .4079895 .44140626 .34298707 .44140626 .24598694 .44140626 .19999695 .37236024 .18699646 .34532167H.18598938V.44140626L.040985109 .43040467V.39738465C.10899353 .39738465 .116989139 .39038087 .116989139 .34132386V.07803345C.116989139 .032989503 .10499573 .032989503 .040985109 .032989503V0C.083999637 .0029907227 .12799073 .0029907227 .15499878 .0029907227 .18399048 .0029907227 .22599793 .0029907227 .2689972 0V.032989503C.20498657 .032989503 .19299317 .032989503 .19299317 .07803345V.25923158C.19299317 .36434938 .27198792 .4133911 .33499146 .4133911 .3999939 .4133911 .41099549 .36235047 .41099549 .3072815V.07803345C.41099549 .032989503 .39898683 .032989503 .33499146 .032989503V0C.37799073 .0029907227 .42199708 .0029907227 .44898988 .0029907227 .47799684 .0029907227 .519989 .0029907227 .5629883 0V.032989503C.49899293 .032989503 .4869995 .032989503 .4869995 .07803345V.25923158C.4869995 .36434938 .56599429 .4133911 .6289978 .4133911 .69400027 .4133911 .7049866 .36235047 .7049866 .3072815V.07803345C.7049866 .032989503 .69299319 .032989503 .6289978 .032989503V0C.6719971 .0029907227 .71598818 .0029907227 .7429962 .0029907227 .7719879 .0029907227 .81399539 .0029907227 .8569946 0V.032989503C.79299929 .032989503 .7809906 .032989503 .7809906 .07803345V.3032837Z"/>
<path id="font_4_12" d="M.19499207 .61586C.19499207 .64486697 .17199707 .671875 .13899231 .671875 .10998535 .671875 .083999637 .64886477 .083999637 .61686709 .083999637 .5818634 .11299133 .5608673 .13899231 .5608673 .17399597 .5608673 .19499207 .58987429 .19499207 .61586M.04499817 .43040467V.3973999C.10899353 .3973999 .117996219 .39138795 .117996219 .34233094V.078048709C.117996219 .032989503 .10598755 .032989503 .041992189 .032989503V0C.08099365 .0029907227 .13699341 .0029907227 .1519928 .0029907227 .16499329 .0029907227 .22499085 .0029907227 .2599945 0V.032989503C.19499207 .032989503 .19099427 .037994386 .19099427 .077041629V.44140626L.04499817 .43040467Z"/>
<path id="font_4_15" d="M.48599244 .3032837C.48599244 .38737489 .44799806 .44140626 .34298707 .44140626 .24398804 .44140626 .19898987 .36935426 .18699646 .34532167H.18598938V.44140626L.040985109 .43040467V.39738465C.10899353 .39738465 .116989139 .39038087 .116989139 .34132386V.07803345C.116989139 .032989503 .10499573 .032989503 .040985109 .032989503V0C.083999637 .0029907227 .12799073 .0029907227 .15499878 .0029907227 .18399048 .0029907227 .22599793 .0029907227 .2689972 0V.032989503C.20498657 .032989503 .19299317 .032989503 .19299317 .07803345V.25923158C.19299317 .36434938 .272995 .4133911 .33399964 .4133911 .394989 .4133911 .4099884 .37036134 .4099884 .3072815V.07803345C.4099884 .032989503 .397995 .032989503 .33399964 .032989503V0C.3769989 .0029907227 .42099 .0029907227 .44799806 .0029907227 .47698976 .0029907227 .5189972 .0029907227 .56199648 0V.032989503C.49798585 .032989503 .48599244 .032989503 .48599244 .07803345V.3032837Z"/>
<path id="font_4_21" d="M.33399964 .43040467V.3973999C.4019928 .3973999 .4099884 .39039613 .4099884 .34136964V.16729737C.4099884 .08125305 .35798646 .018234253 .2829895 .018234253 .19699097 .018234253 .19299317 .06124878 .19299317 .11126709V.44140626L.040985109 .43040467V.3973999C.116989139 .3973999 .116989139 .39439393 .116989139 .3053589V.1552887C.116989139 .08325195 .116989139-.009765625 .2769928-.009765625 .37098695-.009765625 .40699769 .0622406 .4119873 .071243289H.41299439V-.009765625L.56199648 .00022888184V.033233644C.49398805 .033233644 .48599244 .040237428 .48599244 .089263919V.44140626L.33399964 .43040467Z"/>
<path id="font_4_7" d="M.41999818 .29855348C.41999818 .39653016 .32499696 .44628907 .23399353 .44628907 .15098572 .44628907 .07699585 .4143219 .07699585 .34857179 .07699585 .318573 .09799194 .30056764 .12399292 .30056764 .1519928 .30056764 .17098999 .3205719 .17098999 .3475647 .17098999 .37156678 .1559906 .38856507 .13398743 .3935547 .17098999 .41827394 .22499085 .41827394 .23199463 .41827394 .28799439 .41827394 .34399415 .37957765 .34399415 .2975464V.2662201C.28599549 .26322938 .21899414 .2602234 .14898682 .23123169 .06098938 .19322205 .04399109 .13522339 .04399109 .10223389 .04399109 .016220093 .14498902-.009765625 .21398926-.009765625 .2869873-.009765625 .33198548 .031219483 .35398866 .07122803 .35899354 .033233644 .3849945-.004776001 .42900086-.004776001 .43899537-.004776001 .5239868-.00077819827 .5239868 .09022522V.14523316H.49299623V.09022522C.49299623 .049224855 .47799684 .033233644 .45700074 .033233644 .41999818 .033233644 .41999818 .07922363 .41999818 .09022522V.29855348M.34399415 .1412201C.34399415 .04421997 .2619934 .018234253 .22200012 .018234253 .16999817 .018234253 .12599182 .053222658 .12599182 .10122681 .12599182 .16722107 .18798828 .23522949 .34399415 .24023438V.1412201Z"/>
<path id="font_4_23" d="M.30799867 .23381043C.33599855 .2687683 .36499024 .30274964 .394989 .33570863 .42799378 .37068177 .46299745 .39665223 .526001 .3976593V.43066407C.4869995 .42765809 .4850006 .42765809 .43998719 .42765809 .43499757 .42765809 .37599183 .42765809 .34498597 .43066407V.3976593C.3639984 .3956604 .36799623 .383667 .36799623 .37068177 .36799623 .35769654 .36299134 .34570313 .35099793 .33171083L.28799439 .25778199 .20899964 .35169984C.19699097 .36569215 .19699097 .37268067 .19699097 .37467958 .19699097 .3816681 .20298767 .39665223 .22799683 .3976593V.43066407C.18798828 .42765809 .13198853 .42765809 .12098694 .42765809 .102996829 .42765809 .051986696 .42765809 .021987915 .43066407V.3976593C.08999634 .3976593 .09098816 .39665223 .14299011 .33570863L.24598694 .21083069 .15499878 .10392761C.12998963 .07595825 .09298706 .034988405 .016998291 .032989503V0C.053985597 .0029907227 .06098938 .0029907227 .102996829 .0029907227 .10499573 .0029907227 .1659851 .0029907227 .19799805 0V.032989503C.18499756 .034988405 .17399597 .04197693 .17399597 .05996704 .17399597 .07795715 .18598938 .091934207 .18899536 .09693909 .21398926 .12690735 .24099732 .15687561 .2669983 .18585205L.34899903 .0879364C.36898805 .064956668 .36898805 .06295776 .36898805 .05596924 .36898805 .047973634 .3619995 .033996583 .33799745 .032989503V0C.3809967 .0029907227 .42599488 .0029907227 .44499208 .0029907227 .46299745 .0029907227 .5139923 .0029907227 .5439911 0V.032989503C.48199464 .032989503 .47200013 .037994386 .44599916 .06895447L.30799867 .23381043Z"/>
<path id="font_3_1" d="M.18499756 .11885071C.13899231 .04597473 .09799194 .035980226 .06199646 .032989503 .051986696 .03199768 .039993287 .0309906 .039993287 .01399231 .039993287 .010986328 .041992189 0 .053985597 0 .06298828 0 .068984989 .0029907227 .13899231 .0029907227 .20698548 .0029907227 .22999573 0 .23498535 0 .23999024 0 .25498963 0 .25498963 .018997193 .25498963 .03199768 .24198914 .032989503 .23699951 .032989503 .21598816 .033996583 .19499207 .04197693 .19499207 .063934329 .19499207 .07891846 .20298767 .09188843 .22200012 .12084961L.2899933 .23066712H.56399539L.58499148 .061950685C.58499148 .047973634 .5669861 .032989503 .519989 .032989503 .5049896 .032989503 .49198915 .032989503 .49198915 .01399231 .49198915 .0129852299 .49299623 0 .5089874 0 .5189972 0 .5569916 .0019989014 .56599429 .0029907227H.6289978C.71899417 .0029907227 .73599246 0 .74398806 0 .7480011 0 .7639923 0 .7639923 .018997193 .7639923 .032989503 .7509918 .032989503 .7350006 .032989503 .6799927 .032989503 .67900088 .04197693 .6759949 .06694031L.5970001 .6848602C.59399417 .7068634 .59298709 .7138672 .57598879 .7138672 .55799868 .7138672 .5519867 .7038574 .54599 .6938629L.18499756 .11885071M.31098939 .26367188 .5179901 .5928192 .55999758 .26367188H.31098939Z"/>
<path id="font_3_4" d="M.66999819 .56359866C.7200012 .63960269 .7579956 .6476135 .7979889 .6496124 .8089905 .65060427 .8129883 .660614 .8129883 .6686096 .8129883 .6716156 .8109894 .6826172 .798996 .6826172 .7869873 .6826172 .79100039 .6796112 .71798709 .6796112 .6539917 .6796112 .6269989 .6826172 .6230011 .6826172 .6179962 .6826172 .6029968 .6826172 .6029968 .66360476 .6029968 .65060427 .6159973 .6496124 .62098696 .6496124 .647995 .6476135 .6609955 .63760378 .6609955 .6195984 .6609955 .6035919 .6519928 .59059146 .6469879 .5825958L.32199098 .09051514 .23899842 .604599C.23799134 .6136017 .23699951 .61860659 .23699951 .6215973 .23699951 .6345978 .2519989 .6496124 .30299378 .6496124 .31498719 .6496124 .32798768 .6496124 .32798768 .6686096 .32798768 .6726074 .32499696 .6826172 .31199647 .6826172 .30299378 .6826172 .2630005 .680603 .25498963 .6796112H.19198609C.101989749 .6796112 .08898926 .6826172 .07998657 .6826172 .07598877 .6826172 .06098938 .6826172 .06098938 .66360476 .06098938 .6496124 .07398987 .6496124 .08898926 .6496124 .13999939 .6496124 .14099121 .64060977 .14498902 .6156006L.24299622 .006515503C.24598694-.0134887699 .24699402-.021484375 .2659912-.021484375 .2829895-.021484375 .2889862-.012496948 .29599-.0014953613L.66999819 .56359866Z"/>
<path id="font_4_8" d="M.18399048 .69433596 .034988405 .68333438V.6503296C.102996829 .6503296 .11099243 .6433258 .11099243 .5943451V.00022888184H.14199829L.17799378 .0622406C.20199585 .02822876 .24899292-.009765625 .31698609-.009765625 .44400025-.009765625 .55400088 .088256839 .55400088 .2163086 .55400088 .34236146 .45098878 .44140626 .32899476 .44140626 .25 .44140626 .20098877 .39839173 .18399048 .38038636V.69433596M.18699646 .31636048C.18699646 .33535768 .18699646 .33737184 .20199585 .3553772 .23098755 .39239503 .27799989 .4133911 .32299806 .4133911 .375 .4133911 .4139862 .38238526 .43399049 .35237123 .45098878 .32536317 .46499635 .29034425 .46499635 .21731568 .46499635 .19430542 .46499635 .12327576 .42900086 .07624817 .3929901 .031234742 .34599305 .018234253 .31298829 .018234253 .2649994 .018234253 .22499085 .04324341 .19898987 .08226013 .18699646 .101257327 .18699646 .102264408 .18699646 .121276859V.31636048Z"/>
<path id="font_4_10" d="M.41299439 .22851563C.43499757 .22851563 .44099427 .22851563 .44099427 .25151063 .44099427 .34039308 .3919983 .44628907 .25099183 .44628907 .1269989 .44628907 .02999878 .3433838 .02999878 .21949768 .02999878 .09031677 .13798523-.009765625 .2639923-.009765625 .3909912-.009765625 .44099427 .097335819 .44099427 .12036133 .44099427 .12435913 .43798829 .13438416 .4249878 .13438416 .4139862 .13438416 .4119873 .12736511 .4099884 .12136841 .37399293 .024230957 .28799439 .021224976 .269989 .021224976 .22499085 .021224976 .1789856 .042251588 .14898682 .08831787 .11898804 .13438416 .11898804 .19847107 .11898804 .22851563H.41299439M.11999512 .25450135C.1289978 .39431764 .21398926 .41827394 .25099183 .41827394 .36799623 .41827394 .37199403 .27748109 .37298585 .25450135H.11999512Z"/>
<path id="font_4_13" d="M.19099427 .69433596 .041992189 .68333438V.6503296C.10998535 .6503296 .117996219 .6433258 .117996219 .5942993V.07801819C.117996219 .032989503 .10598755 .032989503 .041992189 .032989503V0C.08099365 .0029907227 .13699341 .0029907227 .1539917 .0029907227 .17399597 .0029907227 .22799683 .0029907227 .2669983 0V.032989503C.20298767 .032989503 .19099427 .032989503 .19099427 .07801819V.69433596Z"/>
<path id="font_4_22" d="M.6599884 .3297577C.6689911 .35272218 .6859894 .39665223 .7449951 .3976593V.43066407C.71199038 .42765809 .70999148 .42765809 .6669922 .42765809 .6349945 .42765809 .60798647 .42765809 .57598879 .43066407V.3976593C.6199951 .3956604 .6309967 .3697052 .6309967 .35173036 .6309967 .33973695 .6279907 .3337555 .6259918 .32676698L.5309906 .078125 .42799378 .35072328C.4229889 .3637085 .4229889 .36669923 .4229889 .37069703 .4229889 .39665223 .45498658 .3976593 .47898866 .3976593V.43066407C.43998719 .42765809 .3869934 .42765809 .3769989 .42765809 .35499574 .42765809 .31399537 .42765809 .28399659 .43066407V.3976593C.34498597 .3976593 .34700013 .39266969 .3659973 .33973695L.27398683 .09310913 .1749878 .35173036C.17399597 .3557129 .16999817 .36669923 .16999817 .37069703 .16999817 .3976593 .20799256 .3976593 .22599793 .3976593V.43066407C.18299866 .42765809 .13798523 .42765809 .11898804 .42765809 .100997928 .42765809 .049987794 .42765809 .020996094 .43066407V.3976593C.070999149 .3976593 .08099365 .3936615 .09199524 .3657074L.22599793 .014221191C.23199463-.00077819827 .23498535-.009765625 .25099183-.009765625 .2679901-.009765625 .27198792 .0012207031 .2769928 .014221191L.3829956 .29481507 .4889984 .014221191C.49398805 .0012207031 .49798585-.009765625 .5149994-.009765625 .5309906-.009765625 .5349884 .00022888184 .5389862 .011230469L.6599884 .3297577Z"/>
<path id="font_4_11" d="M.48599244 .3032837C.48599244 .38737489 .44799806 .44140626 .34298707 .44140626 .25498963 .44140626 .20899964 .38537599 .19099427 .35333253H.18998719V.69433596L.040985109 .68333438V.6503296C.10899353 .6503296 .116989139 .6433258 .116989139 .5943451V.07803345C.116989139 .032989503 .10499573 .032989503 .040985109 .032989503V0C.083999637 .0029907227 .12799073 .0029907227 .15499878 .0029907227 .18399048 .0029907227 .22599793 .0029907227 .2689972 0V.032989503C.20498657 .032989503 .19299317 .032989503 .19299317 .07803345V.25923158C.19299317 .36434938 .272995 .4133911 .33399964 .4133911 .394989 .4133911 .4099884 .37036134 .4099884 .3072815V.07803345C.4099884 .032989503 .397995 .032989503 .33399964 .032989503V0C.3769989 .0029907227 .42099 .0029907227 .44799806 .0029907227 .47698976 .0029907227 .5189972 .0029907227 .56199648 0V.032989503C.49798585 .032989503 .48599244 .032989503 .48599244 .07803345V.3032837Z"/>
<path id="font_4_19" d="M.35598756 .4202881C.35598756 .4362793 .35598756 .44628907 .34298707 .44628907 .33799745 .44628907 .33499146 .44628907 .31900025 .4302826 .31698609 .4292755 .30799867 .4202881 .30499269 .4202881 .3039856 .4202881 .3019867 .4202881 .29599 .4242859 .27999879 .43528749 .25099183 .44628907 .20599365 .44628907 .06599426 .44628907 .034988405 .37026979 .034988405 .32226563 .034988405 .27226258 .07199097 .24325562 .07499695 .24024964 .114990238 .21025086 .13798523 .20625305 .20498657 .19424439 .2519989 .18525696 .32899476 .17124939 .32899476 .10324097 .32899476 .0642395 .30299378 .018234253 .21099854 .018234253 .10998535 .018234253 .08099365 .09623718 .067993167 .14924622 .06399536 .1622467 .06298828 .16725159 .050994874 .16725159 .034988405 .16725159 .034988405 .15924073 .034988405 .14024353V.016220093C.034988405 .00022888184 .034988405-.009765625 .04798889-.009765625 .053985597-.009765625 .054992677-.008773804 .07299805 .010223389 .07798767 .0152282719 .08898926 .02822876 .09399414 .033233644 .13899231-.0077667238 .18598938-.009765625 .21199036-.009765625 .33898927-.009765625 .3829956 .06323242 .3829956 .12924195 .3829956 .1772461 .35398866 .24725342 .23498535 .2692566 .22698975 .2712555 .17098999 .28126527 .16699219 .28126527 .13598633 .28826905 .08898926 .30926515 .08898926 .34927369 .08898926 .37927247 .11099243 .4212799 .20599365 .4212799 .31799317 .4212799 .32299806 .33926393 .32499696 .31126405 .32598878 .30326844 .33299256 .30026246 .33999635 .30026246 .35598756 .30026246 .35598756 .30726625 .35598756 .32626344V.4202881Z"/>
<path id="font_4_9" d="M.32899476 .68333438V.6503296C.39698792 .6503296 .40499879 .6433258 .40499879 .5943451V.38339234C.36999513 .42140199 .32299806 .44140626 .2709961 .44140626 .1459961 .44140626 .034988405 .3443756 .034988405 .21531677 .034988405 .09225464 .1349945-.009765625 .26098634-.009765625 .31999208-.009765625 .36898805 .018234253 .4019928 .053237916V-.009765625L.55400088 .00022888184V.033233644C.48599244 .033233644 .47799684 .040237428 .47799684 .089263919V.69433596L.32899476 .68333438M.4019928 .12426758C.4019928 .10626221 .4019928 .102264408 .3869934 .08226013 .35899354 .042236329 .31298829 .018234253 .2659912 .018234253 .21998596 .018234253 .17999268 .042236329 .1559906 .07925415 .1289978 .118270877 .12399292 .16729737 .12399292 .21430969 .12399292 .27233888 .1329956 .3133545 .1559906 .3483734 .17999268 .38539125 .22499085 .4133911 .27598573 .4133911 .32398988 .4133911 .37199403 .38938905 .4019928 .33737184V.12426758Z"/>
<path id="font_4_2" d="M.33299256-.25C.34098817-.25 .35299684-.25 .35299684-.23800659 .35299684-.23400879 .35198976-.23300171 .33898927-.22000122 .20199585-.09100342 .16799927 .09498596 .16799927 .25 .16799927 .5379944 .2869873 .6729889 .33799745 .71899417 .35198976 .7319946 .35299684 .73298647 .35299684 .73799136 .35299684 .7429962 .34899903 .75 .33898927 .75 .32299806 .75 .272995 .69898989 .2649994 .6899872 .1309967 .5499878 .102996829 .36999513 .102996829 .25 .102996829 .025985718 .19699097-.15400696 .33299256-.25Z"/>
<path id="font_3_6" d="M.47599793 .4123993C.47698976 .4163971 .47799684 .4223938 .47799684 .42739869 .47799684 .4333954 .47399903 .44140626 .46499635 .44140626 .45298768 .44140626 .4119873 .40238954 .3959961 .3743744 .3849945 .39639283 .35499574 .44140626 .29299928 .44140626 .17399597 .44140626 .042999269 .3023529 .042999269 .15428162 .042999269 .050247194 .10998535-.009765625 .18699646-.009765625 .23699951-.009765625 .27799989 .019226075 .30799867 .04524231 .30699159 .042236329 .27598573-.08406067 .27198792-.101119998 .25698854-.15933228 .25698854-.16033936 .19400025-.16134644 .18199158-.16134644 .16899109-.16134644 .16899109-.18034363 .16899109-.18634033 .17399597-.19433594 .18399048-.19433594 .19699097-.19433594 .21998596-.19233704 .23298645-.19134522H.28599549C.3659973-.19134522 .38398744-.19433594 .3919983-.19433594 .3959961-.19433594 .41099549-.19433594 .41099549-.17533875 .41099549-.16134644 .39698792-.16134644 .3849945-.16134644 .33699037-.16134644 .33699037-.15531922 .33699037-.14628601 .33699037-.14527893 .33699037-.14025879 .34098817-.12521363L.47599793 .4123993M.32798768 .12426758C.32398988 .10926819 .32398988 .10626221 .30699159 .087249759 .25498963 .026229859 .21099854 .018234253 .18998719 .018234253 .14399719 .018234253 .12098694 .0602417 .12098694 .11227417 .12098694 .1592865 .147995 .2663269 .16999817 .3103485 .19898987 .37138368 .24798584 .4133911 .2939911 .4133911 .36099244 .4133911 .37799073 .33535768 .37799073 .32835389 .37799073 .32435609 .37599183 .3173523 .375 .3123474L.32798768 .12426758Z"/>
<path id="font_4_5" d="M.4889984 .31877137C.4889984 .42585755 .47799684 .49090577 .44499208 .55496218 .40098573 .6430359 .31999208 .66503909 .2649994 .66503909 .13899231 .66503909 .09298706 .5709839 .07899475 .5429535 .042999269 .4698944 .040985109 .3708191 .040985109 .31877137 .040985109 .25271607 .04399109 .15162659 .09199524 .07156372 .13798523-.0024871827 .21199036-.021484375 .2649994-.021484375 .31298829-.021484375 .39898683-.0064849855 .44898988 .09257507 .48599244 .16464234 .4889984 .2537079 .4889984 .31877137M.2649994 .006515503C.23098755 .006515503 .1619873 .022521973 .14099121 .12760926 .12998963 .18466187 .12998963 .2787323 .12998963 .33078004 .12998963 .3998413 .12998963 .4698944 .14099121 .5249481 .1619873 .6270294 .23999024 .6370239 .2649994 .6370239 .29899598 .6370239 .36799623 .62002566 .3880005 .5289459 .3999939 .4738922 .3999939 .39883424 .3999939 .33078004 .3999939 .27172853 .3999939 .18165589 .3880005 .12561035 .36698915 .020523072 .2979889 .006515503 .2649994 .006515503Z"/>
<path id="font_4_3" d="M.30899049 .25C.30899049 .34500123 .29299928 .45899964 .23098755 .57699587 .18199158 .6689911 .09098816 .75 .07299805 .75 .06298828 .75 .05999756 .7429962 .05999756 .73799136 .05999756 .73399356 .05999756 .7319946 .07199097 .7200012 .21199036 .58699038 .24398804 .4039917 .24398804 .25 .24398804-.037002565 .125-.17300415 .07398987-.2190094 .06098938-.23200989 .05999756-.23300171 .05999756-.23800659 .05999756-.24301148 .06298828-.25 .07299805-.25 .08898926-.25 .13899231-.19900513 .14698792-.19000244 .2809906-.05000305 .30899049 .12998963 .30899049 .25Z"/>
</defs>
<path transform="matrix(1,0,0,-1,51.858,169.711)" stroke-width=".3985" stroke-linecap="butt" stroke-miterlimit="10" stroke-linejoin="miter" fill="none" stroke="#2a2620" d="M0 0H216.67687"/>
<path transform="matrix(1,0,0,-1,266.1598,169.711)" d="M6.23575 0 .64343 2.10364 2.47467 0 .64343-2.10364Z" fill="#2a2620"/>
<path transform="matrix(1,0,0,-1,266.1598,169.711)" stroke-width=".3985" stroke-linecap="butt" stroke-miterlimit="10" stroke-linejoin="miter" fill="none" stroke="#2a2620" d="M6.23575 0 .64343 2.10364 2.47467 0 .64343-2.10364Z"/>
<use data-text="q" xlink:href="#font_1_6" transform="matrix(8.9664,0,0,-8.9664,270.741,177.091)" fill="#2a2620"/>
<path transform="matrix(1,0,0,-1,51.858,169.711)" stroke-width=".3985" stroke-linecap="butt" stroke-miterlimit="10" stroke-linejoin="miter" fill="none" stroke="#2a2620" d="M0 0V146.71596"/>
<path transform="matrix(0,-1,-1,-0,51.858,25.370102)" d="M6.23575 0 .64343 2.10364 2.47467 0 .64343-2.10364Z" fill="#2a2620"/>
<path transform="matrix(0,-1,-1,-0,51.858,25.370102)" stroke-width=".3985" stroke-linecap="butt" stroke-miterlimit="10" stroke-linejoin="miter" fill="none" stroke="#2a2620" d="M6.23575 0 .64343 2.10364 2.47467 0 .64343-2.10364Z"/>
<use data-text="p" xlink:href="#font_2_6" transform="matrix(8.9664,0,0,-8.9664,7.3060038,13.304993)" fill="#2a2620"/>
<use data-text="r" xlink:href="#font_2_7" transform="matrix(8.9664,0,0,-8.9664,12.425819,13.304993)" fill="#2a2620"/>
<use data-text="i" xlink:href="#font_2_4" transform="matrix(8.9664,0,0,-8.9664,16.030312,13.304993)" fill="#2a2620"/>
<use data-text="c" xlink:href="#font_2_2" transform="matrix(8.9664,0,0,-8.9664,18.594702,13.304993)" fill="#2a2620"/>
<use data-text="e" xlink:href="#font_2_3" transform="matrix(8.9664,0,0,-8.9664,22.692347,13.304993)" fill="#2a2620"/>
<use data-text="," xlink:href="#font_2_1" transform="matrix(8.9664,0,0,-8.9664,26.789992,13.304993)" fill="#2a2620"/>
<use data-text="c" xlink:href="#font_2_2" transform="matrix(8.9664,0,0,-8.9664,32.42089,13.304993)" fill="#2a2620"/>
<use data-text="o" xlink:href="#font_2_5" transform="matrix(8.9664,0,0,-8.9664,36.518537,13.304993)" fill="#2a2620"/>
<use data-text="s" xlink:href="#font_2_8" transform="matrix(8.9664,0,0,-8.9664,41.127267,13.304993)" fill="#2a2620"/>
<use data-text="t" xlink:href="#font_2_9" transform="matrix(8.9664,0,0,-8.9664,44.75866,13.304993)" fill="#2a2620"/>
<path transform="matrix(1,0,0,-1,51.858,169.711)" stroke-width="1.19553" stroke-linecap="butt" stroke-miterlimit="10" stroke-linejoin="miter" fill="none" stroke="#2a2620" d="M10.63004 71.39795C10.63004 71.39795 11.75275 69.78426 12.18394 69.17348 12.61513 68.56271 13.30664 67.59366 13.73782 66.99591 14.169 66.39818 14.86053 65.45001 15.29172 64.8653 15.72292 64.28058 16.41441 63.35332 16.84561 62.78162 17.2768 62.20992 17.96832 61.30353 18.3995 60.74484 18.8307 60.18617 19.5222 59.30063 19.9534 58.75502 20.38458 58.2094 21.07611 57.34497 21.5073 56.81238 21.93849 56.2798 22.62999 55.43599 23.06119 54.91641 23.49237 54.39684 24.1839 53.57419 24.61508 53.06764 25.04626 52.5611 25.73778 51.75903 26.16896 51.26552 26.60016 50.772 27.29167 49.9911 27.72287 49.5106 28.15405 49.03009 28.84557 48.26984 29.27675 47.80235 29.70795 47.33488 30.39946 46.59575 30.83066 46.1413 31.26184 45.68684 31.95335 44.96834 32.38454 44.5269 32.81573 44.08546 33.50725 43.38809 33.93845 42.95972 34.36963 42.53134 35.06114 41.8548 35.49232 41.43944 35.92351 41.0241 36.61504 40.36844 37.04622 39.96611 37.47742 39.5638 38.16891 38.92905 38.60011 38.53972 39.0313 38.15038 39.72282 37.53629 40.154 37.15997 40.5852 36.78365 41.2767 36.19067 41.7079 35.82742 42.13908 35.46417 42.83061 34.892 43.2618 34.54181 43.693 34.19162 44.38449 33.64058 44.81569 33.30339 45.24687 32.96622 45.9384 32.43584 46.36958 32.11165 46.80077 31.78746 47.49228 31.27798 47.92346 30.96681 48.35466 30.65565 49.04619 30.16707 49.47737 29.86893 49.90855 29.57079 50.60007 29.10304 51.03125 28.81796 51.46245 28.53287 52.15396 28.08626 52.58516 27.8142 53.01634 27.54214 53.70786 27.11615 54.13904 26.85709 54.57024 26.598 55.26175 26.19293 55.69295 25.94691 56.12413 25.7009 56.81564 25.31693 57.24683 25.08394 57.67801 24.85095 58.36954 24.4876 58.80074 24.26762 59.23192 24.04765 59.92343 23.70543 60.35461 23.4985 60.7858 23.2916 61.47733 22.97025 61.90851 22.77632 62.3397 22.58241 63.0312 22.2817 63.4624 22.1008 63.89359 21.91989 64.58511 21.64032 65.0163 21.47247 65.4475 21.30463 66.13899 21.04593 66.57019 20.89108 67.00137 20.73624 67.6929 20.49817 68.12408 20.35634 68.55527 20.21451 69.24678 19.99759 69.67798 19.8688 70.10916 19.74004 70.80069 19.54395 71.23187 19.42819 71.66306 19.31245 72.35457 19.13725 72.78575 19.03453 73.21695 18.93181 73.90846 18.7775 74.33966 18.68779 74.77084 18.59808 75.46236 18.46465 75.89354 18.38797 76.32474 18.3113 77.01625 18.1987 77.44745 18.13509 77.87863 18.07147 78.57014 17.97998 79.00133 17.92938 79.43253 17.8788 80.12404 17.80797 80.55524 17.77036 80.98642 17.73276 81.67793 17.68286 82.10912 17.65828 82.5403 17.6337 83.23183 17.60463 83.66301 17.59311 84.09421 17.58159 84.7857 17.57367 85.2169 17.57513 85.64809 17.57661 86.33961 17.58937 86.7708 17.60384 87.202 17.61832 87.8935 17.65192 88.32469 17.67946 88.75587 17.70699 89.4474 17.76169 89.87859 17.80229 90.30978 17.84288 91.00128 17.91846 91.43248 17.97203 91.86366 18.0256 92.55519 18.12184 92.98637 18.18845 93.41756 18.25505 94.10907 18.3724 94.54025 18.45206 94.97145 18.53172 95.66298 18.66997 96.09416 18.7626 96.52534 18.85526 97.21686 19.01414 97.64804 19.11981 98.07924 19.22548 98.77075 19.40549 99.20195 19.52422 99.63313 19.64294 100.32465 19.84381 100.75583 19.97554 101.18703 20.10728 101.87854 20.32904 102.30974 20.4738 102.74092 20.61858 103.43243 20.86119 103.86362 21.019 104.2948 21.17679 104.98633 21.44032 105.41751 21.61113 105.84871 21.78194 106.54022 22.06633 106.9714 22.25017 107.40259 22.434 108.09412 22.73929 108.5253 22.93616 108.9565 23.13303 109.648 23.45918 110.0792 23.66907 110.51038 23.87894 111.2019 24.22595 111.63309 24.44891 112.06429 24.67186 112.75578 25.04 113.18698 25.27596 113.61816 25.51192 114.3097 25.90071 114.74088 26.14966 115.17206 26.3986 115.86357 26.80829 116.29477 27.0703 116.72595 27.33229 117.41748 27.76308 117.84866 28.03812 118.27985 28.31314 118.97136 28.7646 119.40254 29.05261 119.83374 29.34064 120.52525 29.81296 120.95645 30.11403 121.38763 30.4151 122.07915 30.90851 122.51033 31.22266 122.94153 31.5368 123.63304 32.05107 124.06424 32.3782 124.49542 32.70534 125.18694 33.24028 125.61812 33.58041 126.04932 33.92056 126.74083 34.47661 127.17203 34.82982 127.60321 35.18304 128.29473 35.75993 128.7259 36.12617 129.15709 36.4924 129.84862 37.09023 130.2798 37.46944 130.711 37.84865 131.4025 38.46712 131.8337 38.85936 132.26488 39.2516 132.9564 39.8912 133.38759 40.2965 133.81879 40.7018 134.51029 41.36223 134.94149 41.78056 135.37267 42.19888 136.0642 42.88022 136.49538 43.31155 136.92658 43.74289 137.61808 44.4451 138.04927 44.88948 138.48046 45.33385 139.17198 46.05693 139.60317 46.51433 140.03435 46.97173 140.72586 47.71565 141.15705 48.18611 141.58824 48.65657 142.27976 49.42163 142.71096 49.90509 143.14214 50.38857 143.83365 51.17426 144.26483 51.67073 144.69603 52.16719 145.38755 52.97379 145.81874 53.4833 146.24993 53.99283 146.94144 54.82051 147.37262 55.34306 147.80382 55.86562 148.49533 56.71397 148.92653 57.2495 149.35771 57.78503 150.04923 58.65427 150.48041 59.20287 150.91159 59.75146 151.60312 60.64182 152.0343 61.20341 152.4655 61.76503 153.15702 62.676 153.5882 63.25064 154.01938 63.82527 154.7109 64.75737 155.14209 65.34506 155.57329 65.93275 156.26479 66.88573 156.69599 67.4864 157.12717 68.08708 157.8187 69.06071 158.24988 69.67441 158.68108 70.28812 159.37258 71.28285 159.80377 71.90962 160.23496 72.53638 160.92649 73.55199 161.35767 74.19177 161.78885 74.83156 162.48036 75.86804 162.91156 76.52084 163.34275 77.17365 164.03427 78.23103 164.46546 78.89684 164.89664 79.56264 165.58815 80.64067 166.01934 81.31949 166.45053 81.99832 167.14205 83.09747 167.57324 83.78935 168.00443 84.48125 168.69594 85.6012 169.12712 86.30614 169.55832 87.01108 170.24983 88.15218 170.68103 88.87013 171.11222 89.58809 171.80373 90.74983 172.23491 91.48079 172.6661 92.21175 173.35762 93.3944 173.78882 94.13837 174.22 94.88234 174.91152 96.08588 175.3427 96.84288 175.77388 97.59987 176.46541 98.82425 176.89659 99.59431 177.32779 100.36436 178.01929 101.60986 178.45049 102.39294 178.88167 103.17603 179.5732 104.44214 180.00438 105.23824 180.43558 106.03433 181.12708 107.32161 181.55828 108.13074 181.98946 108.93987 182.68099 110.24776 183.11217 111.0699 183.54337 111.89206 184.23487 113.22108 184.66606 114.05626 185.09725 114.89142 185.78878 116.24109 186.21996 117.08928 186.65114 117.93747 187.34265 119.30827 187.77384 120.16951 188.20503 121.03073 188.89655 122.42215 189.32775 123.29639 189.75893 124.17062 190.45044 125.58316 190.88162 126.47044 191.31282 127.35774 192.00434 128.79114 192.43553 129.69147 192.86672 130.59178 193.55823 132.04605 193.98941 132.9594 194.42061 133.87274 195.54332 136.27426 195.54332 136.27426"/>
<use data-text="M" xlink:href="#font_1_3" transform="matrix(8.9664,0,0,-8.9664,250.969,36.393999)" fill="#2a2620"/>
<use data-text="C" xlink:href="#font_1_2" transform="matrix(8.9664,0,0,-8.9664,260.841,36.393999)" fill="#2a2620"/>
<path transform="matrix(1,0,0,-1,51.858,169.711)" stroke-width=".79701" stroke-linecap="butt" stroke-miterlimit="10" stroke-linejoin="miter" fill="none" stroke="#8aa08a" d="M21.2601 71.76402C21.2601 71.76402 22.31812 71.0382 22.72446 70.76212 23.1308 70.48604 23.78247 70.04639 24.18881 69.77419 24.59517 69.50198 25.24681 69.06853 25.65317 68.80019 26.05951 68.53183 26.71118 68.10463 27.11752 67.84013 27.52388 67.57562 28.17554 67.15439 28.58188 66.89374 28.98824 66.6331 29.6399 66.21835 30.04625 65.9616 30.45259 65.70483 31.10425 65.29604 31.51059 65.0431 31.91695 64.79018 32.5686 64.38762 32.97496 64.13855 33.3813 63.88948 34.03296 63.4932 34.43932 63.24796 34.84566 63.00272 35.49733 62.6124 35.90367 62.37103 36.31003 62.12967 36.96169 61.74582 37.36804 61.50833 37.77438 61.27086 38.42604 60.89296 38.83238 60.6593 39.23872 60.42566 39.8904 60.05402 40.29674 59.82422 40.7031 59.59442 41.35475 59.22899 41.76111 59.00307 42.16745 58.77715 42.81912 58.41795 43.22546 58.19588 43.63182 57.97379 44.28346 57.62062 44.6898 57.40236 45.09616 57.1841 45.74782 56.83713 46.15417 56.62279 46.56052 56.40843 47.21219 56.06792 47.61853 55.85742 48.02489 55.64694 48.67654 55.31242 49.0829 55.10573 49.48924 54.89905 50.1409 54.57054 50.54726 54.36772 50.9536 54.16492 51.60526 53.84288 52.0116 53.64392 52.41795 53.44498 53.06961 53.12889 53.47597 52.9338 53.88231 52.73874 54.53397 52.42912 54.94032 52.23792 55.34666 52.0467 55.99834 51.74306 56.40468 51.55568 56.81104 51.3683 57.46269 51.07095 57.86905 50.8874 58.27539 50.70386 58.92705 50.41246 59.33339 50.23279 59.73975 50.05312 60.3914 49.7682 60.79774 49.5924 61.2041 49.41661 61.85576 49.13762 62.26212 48.96568 62.66846 48.79375 63.32013 48.52124 63.72647 48.35318 64.13283 48.18512 64.78447 47.91862 65.19081 47.75435 65.59717 47.59007 66.24883 47.3296 66.65518 47.1692 67.06152 47.0088 67.7132 46.7548 68.11954 46.59827 68.5259 46.44173 69.17755 46.19366 69.58391 46.04102 69.99025 45.88835 70.6419 45.64674 71.04826 45.49797 71.4546 45.34918 72.10626 45.11354 72.5126 44.96858 72.91896 44.82364 73.57062 44.59425 73.97697 44.45316 74.38332 44.31207 75.03499 44.08894 75.44133 43.95168 75.84769 43.81442 76.49934 43.5973 76.90569 43.46388 77.31204 43.33044 77.96368 43.11954 78.37004 42.99002 78.77638 42.86049 79.42805 42.65602 79.8344 42.53036 80.24075 42.40472 80.89241 42.20625 81.29875 42.08441 81.70511 41.96255 82.35677 41.7701 82.76312 41.6521 83.16946 41.53412 83.82114 41.34811 84.22748 41.23404 84.63383 41.11996 85.28548 40.94014 85.69183 40.8299 86.09818 40.71965 86.74983 40.54585 87.15619 40.43944 87.56253 40.33302 88.2142 40.16547 88.62054 40.06293 89.0269 39.96039 89.67856 39.79903 90.08492 39.70035 90.49126 39.60168 91.14291 39.44656 91.54926 39.35173 91.9556 39.2569 92.60727 39.10776 93.01361 39.01678 93.41997 38.92581 94.07162 38.78314 94.47798 38.69604 94.88432 38.60896 95.536 38.47226 95.94234 38.389 96.3487 38.30574 97.00035 38.1753 97.4067 38.09589 97.81305 38.0165 98.46469 37.89229 98.87105 37.81673 99.27739 37.74115 99.92906 37.62292 100.3354 37.55124 100.74176 37.47954 101.39342 37.3678 101.79977 37.29996 102.20612 37.23213 102.85777 37.12634 103.26413 37.06235 103.67047 36.99837 104.32213 36.89883 104.72847 36.8387 105.13483 36.77858 105.78648 36.68524 106.19284 36.629 106.59918 36.57274 107.25084 36.48561 107.6572 36.43323 108.06354 36.38083 108.71521 36.29996 109.12155 36.2514 109.52791 36.20285 110.17957 36.12798 110.58592 36.08325 110.99226 36.03853 111.64392 35.96991 112.05026 35.92906 112.45662 35.88821 113.10828 35.82578 113.51462 35.7888 113.92097 35.75183 114.57263 35.6956 114.97899 35.66249 115.38533 35.62938 116.037 35.57942 116.44334 35.55014 116.8497 35.52086 117.50136 35.47685 117.90771 35.45145 118.31406 35.42604 118.9657 35.3885 119.37206 35.36697 119.7784 35.34543 120.43007 35.31389 120.83641 35.29617 121.24277 35.27846 121.89442 35.25316 122.30078 35.23932 122.70712 35.22548 123.35878 35.20642 123.76514 35.19641 124.17148 35.18642 124.82314 35.17331 125.22948 35.16719 125.63583 35.16106 126.28749 35.15443 126.69385 35.15216 127.10019 35.1499 127.75186 35.14928 128.1582 35.15083 128.56456 35.15237 129.21622 35.158 129.62256 35.16344 130.02892 35.16885 130.68058 35.18073 131.08693 35.18999 131.49327 35.19925 132.14493 35.21709 132.55127 35.23021 132.95763 35.24333 133.60929 35.26765 134.01563 35.28465 134.42198 35.30165 135.07364 35.33192 135.48 35.35275 135.88634 35.37358 136.53801 35.41011 136.94435 35.43481 137.35071 35.45952 138.00235 35.50227 138.4087 35.53084 138.81505 35.5594 139.4667 35.60834 139.87306 35.64078 140.2794 35.67322 140.93108 35.7284 141.33742 35.76466 141.74378 35.80093 142.39543 35.86214 142.80179 35.90225 143.20813 35.94235 143.8598 36.00975 144.26615 36.05377 144.67249 36.09778 145.32415 36.17166 145.73049 36.2195 146.13684 36.26733 146.7885 36.34697 147.19486 36.39864 147.6012 36.4503 148.25287 36.53639 148.65921 36.59198 149.06557 36.64755 149.71723 36.73987 150.12357 36.79929 150.52993 36.85869 151.18157 36.957 151.58792 37.02025 151.99427 37.08348 152.64594 37.18806 153.05228 37.25517 153.45864 37.3223 154.11029 37.43306 154.51665 37.50403 154.92299 37.57501 155.57465 37.69199 155.981 37.76685 156.38735 37.8417 157.03902 37.9649 157.44536 38.0436 157.85172 38.12228 158.50336 38.25151 158.90972 38.33403 159.31606 38.41655 159.96773 38.55202 160.37407 38.6384 160.78041 38.7248 161.43209 38.86647 161.83843 38.95673 162.24478 39.04697 162.89644 39.19485 163.3028 39.28899 163.70914 39.38312 164.3608 39.5372 164.76714 39.6352 165.1735 39.73318 165.82515 39.89351 166.23149 39.99535 166.63785 40.09718 167.2895 40.2635 167.69586 40.36919 168.1022 40.47485 168.75388 40.64742 169.16022 40.75696 169.56658 40.86649 170.21823 41.04527 170.62459 41.15868 171.03093 41.27208 171.68257 41.45706 172.08893 41.57433 172.49527 41.6916 173.14694 41.88284 173.55329 42.00395 173.95964 42.12508 174.6113 42.3223 175.01766 42.44725 175.424 42.57219 176.07566 42.77567 176.48201 42.90448 176.88835 43.03328 177.54003 43.24297 177.94637 43.37564 178.35272 43.50833 179.00437 43.72423 179.41072 43.86076 179.81707 43.99731 180.46874 44.21942 180.87508 44.35983 181.28144 44.50026 181.93309 44.72859 182.33943 44.87285 182.74579 45.01709 183.39745 45.25145 183.8038 45.39954 184.21015 45.5476 184.8618 45.78821 185.26815 45.94017 185.6745 46.09213 186.32616 46.33894 186.7325 46.49475 187.13886 46.65057 187.79051 46.90358 188.19687 47.06328 188.60321 47.22298 189.25489 47.48222 189.66123 47.64574 190.06758 47.80927 190.71924 48.07452 191.1256 48.24188 191.53194 48.40924 192.18358 48.68076 192.58994 48.85197 192.99628 49.0232 193.64795 49.30092 194.05429 49.47601 194.46065 49.65111 195.51866 50.114 195.51866 50.114"/>
<use data-text="A" xlink:href="#font_1_1" transform="matrix(8.9664,0,0,-8.9664,250.969,122.628)" fill="#8aa08a"/>
<use data-text="V" xlink:href="#font_1_4" transform="matrix(8.9664,0,0,-8.9664,257.88209,122.628)" fill="#8aa08a"/>
<use data-text="C" xlink:href="#font_1_2" transform="matrix(8.9664,0,0,-8.9664,265.2973,122.628)" fill="#8aa08a"/>
<path transform="matrix(1,0,0,-1,51.858,169.711)" stroke-width=".79701" stroke-linecap="butt" stroke-dasharray="2.98883,2.98883" stroke-miterlimit="10" stroke-linejoin="miter" fill="none" stroke="#a03a2c" d="M0 70.29953H212.6011"/>
<use data-text="p" xlink:href="#font_1_5" transform="matrix(8.9664,0,0,-8.9664,43.712,100.471)" fill="#a03a2c"/>
<path transform="matrix(1,0,0,-1,51.858,169.711)" d="M13.58745 70.29953C13.58745 71.51004 12.60614 72.49135 11.39565 72.49135 10.18513 72.49135 9.20383 71.51004 9.20383 70.29953 9.20383 69.08904 10.18513 68.10773 11.39565 68.10773 12.60614 68.10773 13.58745 69.08904 13.58745 70.29953ZM11.39565 70.29953" fill="#5a1ba6"/>
<path transform="matrix(1,0,0,-1,51.858,169.711)" d="M160.87703 70.29953C160.87703 71.51004 159.89572 72.49135 158.68523 72.49135 157.47472 72.49135 156.49341 71.51004 156.49341 70.29953 156.49341 69.08904 157.47472 68.10773 158.68523 68.10773 159.89572 68.10773 160.87703 69.08904 160.87703 70.29953ZM158.68523 70.29953" fill="#5a1ba6"/>
<use data-text="p" xlink:href="#font_3_5" transform="matrix(7.9701,0,0,-7.9701,88.264,57.964006)" fill="#5a1ba6"/>
<use data-text="=" xlink:href="#font_4_6" transform="matrix(7.9701,0,0,-7.9701,94.879,57.964006)" fill="#5a1ba6"/>
<use data-text="M" xlink:href="#font_3_3" transform="matrix(7.9701,0,0,-7.9701,103.818,57.964006)" fill="#5a1ba6"/>
<use data-text="C" xlink:href="#font_3_2" transform="matrix(7.9701,0,0,-7.9701,112.8003,57.964006)" fill="#5a1ba6"/>
<use data-text="," xlink:href="#font_4_4" transform="matrix(7.9701,0,0,-7.9701,119.399,57.964006)" fill="#5a1ba6"/>
<use data-text="p" xlink:href="#font_4_17" transform="matrix(7.9701,0,0,-7.9701,75.953,67.428)" fill="#5a1ba6"/>
<use data-text="r" xlink:href="#font_4_18" transform="matrix(7.9701,0,0,-7.9701,80.655368,67.428)" fill="#5a1ba6"/>
<use data-text="o" xlink:href="#font_4_16" transform="matrix(7.9701,0,0,-7.9701,83.95499,67.428)" fill="#5a1ba6"/>
<use data-text="f" xlink:href="#font_4_1" transform="matrix(7.9701,0,0,-7.9701,88.18711,67.428)" fill="#5a1ba6"/>
<use data-text="t" xlink:href="#font_4_20" transform="matrix(7.9701,0,0,-7.9701,92.88947,67.428)" fill="#5a1ba6"/>
<use data-text="m" xlink:href="#font_4_14" transform="matrix(7.9701,0,0,-7.9701,99.00254,67.428)" fill="#5a1ba6"/>
<use data-text="i" xlink:href="#font_4_12" transform="matrix(7.9701,0,0,-7.9701,106.056079,67.428)" fill="#5a1ba6"/>
<use data-text="n" xlink:href="#font_4_15" transform="matrix(7.9701,0,0,-7.9701,108.40726,67.428)" fill="#5a1ba6"/>
<use data-text="i" xlink:href="#font_4_12" transform="matrix(7.9701,0,0,-7.9701,113.10962,67.428)" fill="#5a1ba6"/>
<use data-text="m" xlink:href="#font_4_14" transform="matrix(7.9701,0,0,-7.9701,115.4608,67.428)" fill="#5a1ba6"/>
<use data-text="u" xlink:href="#font_4_21" transform="matrix(7.9701,0,0,-7.9701,122.2832,67.428)" fill="#5a1ba6"/>
<use data-text="m" xlink:href="#font_4_14" transform="matrix(7.9701,0,0,-7.9701,126.985569,67.428)" fill="#5a1ba6"/>
<path transform="matrix(1,0,0,-1,51.858,169.711)" stroke-width=".3985" stroke-linecap="butt" stroke-miterlimit="10" stroke-linejoin="miter" fill="none" stroke="#5a1ba6" d="M44.64635 98.41945 17.43494 75.76845"/>
<path transform="matrix(-.76854,.63972,.63972,.76854,71.11827,92.42317)" d="M6.23575 0 .64343 2.10364 2.47467 0 .64343-2.10364Z" fill="#5a1ba6"/>
<path transform="matrix(-.76854,.63972,.63972,.76854,71.11827,92.42317)" stroke-width=".3985" stroke-linecap="butt" stroke-miterlimit="10" stroke-linejoin="miter" fill="none" stroke="#5a1ba6" d="M6.23575 0 .64343 2.10364 2.47467 0 .64343-2.10364Z"/>
<use data-text="p" xlink:href="#font_3_5" transform="matrix(7.9701,0,0,-7.9701,234.339,72.024)" fill="#5a1ba6"/>
<use data-text="=" xlink:href="#font_4_6" transform="matrix(7.9701,0,0,-7.9701,240.95401,72.024)" fill="#5a1ba6"/>
<use data-text="M" xlink:href="#font_3_3" transform="matrix(7.9701,0,0,-7.9701,249.893,72.024)" fill="#5a1ba6"/>
<use data-text="C" xlink:href="#font_3_2" transform="matrix(7.9701,0,0,-7.9701,258.87535,72.024)" fill="#5a1ba6"/>
<use data-text="," xlink:href="#font_4_4" transform="matrix(7.9701,0,0,-7.9701,265.473,72.024)" fill="#5a1ba6"/>
<use data-text="p" xlink:href="#font_4_17" transform="matrix(7.9701,0,0,-7.9701,221.204,81.488)" fill="#5a1ba6"/>
<use data-text="r" xlink:href="#font_4_18" transform="matrix(7.9701,0,0,-7.9701,225.90636,81.488)" fill="#5a1ba6"/>
<use data-text="o" xlink:href="#font_4_16" transform="matrix(7.9701,0,0,-7.9701,229.20598,81.488)" fill="#5a1ba6"/>
<use data-text="f" xlink:href="#font_4_1" transform="matrix(7.9701,0,0,-7.9701,233.4381,81.488)" fill="#5a1ba6"/>
<use data-text="t" xlink:href="#font_4_20" transform="matrix(7.9701,0,0,-7.9701,238.14046,81.488)" fill="#5a1ba6"/>
<use data-text="m" xlink:href="#font_4_14" transform="matrix(7.9701,0,0,-7.9701,244.25353,81.488)" fill="#5a1ba6"/>
<use data-text="a" xlink:href="#font_4_7" transform="matrix(7.9701,0,0,-7.9701,251.30707,81.488)" fill="#5a1ba6"/>
<use data-text="x" xlink:href="#font_4_23" transform="matrix(7.9701,0,0,-7.9701,255.53919,81.488)" fill="#5a1ba6"/>
<use data-text="i" xlink:href="#font_4_12" transform="matrix(7.9701,0,0,-7.9701,260.0104,81.488)" fill="#5a1ba6"/>
<use data-text="m" xlink:href="#font_4_14" transform="matrix(7.9701,0,0,-7.9701,262.36158,81.488)" fill="#5a1ba6"/>
<use data-text="u" xlink:href="#font_4_21" transform="matrix(7.9701,0,0,-7.9701,269.18397,81.488)" fill="#5a1ba6"/>
<use data-text="m" xlink:href="#font_4_14" transform="matrix(7.9701,0,0,-7.9701,273.88633,81.488)" fill="#5a1ba6"/>
<path transform="matrix(1,0,0,-1,51.858,169.711)" stroke-width=".3985" stroke-linecap="butt" stroke-miterlimit="10" stroke-linejoin="miter" fill="none" stroke="#5a1ba6" d="M167.95473 86.9956 160.93058 78.15942"/>
<path transform="matrix(-.62222,.78276,.78276,.62222,214.26639,89.69246)" d="M6.23575 0 .64343 2.10364 2.47467 0 .64343-2.10364Z" fill="#5a1ba6"/>
<path transform="matrix(-.62222,.78276,.78276,.62222,214.26639,89.69246)" stroke-width=".3985" stroke-linecap="butt" stroke-miterlimit="10" stroke-linejoin="miter" fill="none" stroke="#5a1ba6" d="M6.23575 0 .64343 2.10364 2.47467 0 .64343-2.10364Z"/>
<path transform="matrix(1,0,0,-1,51.858,169.711)" stroke-width=".3985" stroke-linecap="butt" stroke-dasharray=".3985,1.99255" stroke-miterlimit="10" stroke-linejoin="miter" fill="none" stroke="#7a6f62" d="M0 35.14977H157.32468"/>
<path transform="matrix(1,0,0,-1,51.858,169.711)" d="M129.35396 35.14977C129.35396 36.14018 128.55109 36.94307 127.56065 36.94307 126.57024 36.94307 125.76736 36.14018 125.76736 35.14977 125.76736 34.15933 126.57024 33.35646 127.56065 33.35646 128.55109 33.35646 129.35396 34.15933 129.35396 35.14977ZM127.56065 35.14977" fill="#8aa08a"/>
<use data-text="m" xlink:href="#font_4_14" transform="matrix(7.9701,0,0,-7.9701,13.058002,137.284)" fill="#7a6f62"/>
<use data-text="i" xlink:href="#font_4_12" transform="matrix(7.9701,0,0,-7.9701,20.111542,137.284)" fill="#7a6f62"/>
<use data-text="n" xlink:href="#font_4_15" transform="matrix(7.9701,0,0,-7.9701,22.462719,137.284)" fill="#7a6f62"/>
<use data-text="A" xlink:href="#font_3_1" transform="matrix(7.9701,0,0,-7.9701,28.583004,137.284)" fill="#7a6f62"/>
<use data-text="V" xlink:href="#font_3_4" transform="matrix(7.9701,0,0,-7.9701,34.927206,137.284)" fill="#7a6f62"/>
<use data-text="C" xlink:href="#font_3_2" transform="matrix(7.9701,0,0,-7.9701,41.74164,137.284)" fill="#7a6f62"/>
<use data-text="b" xlink:href="#font_4_8" transform="matrix(7.9701,0,0,-7.9701,78.702,161.158)" fill="#7a6f62"/>
<use data-text="e" xlink:href="#font_4_10" transform="matrix(7.9701,0,0,-7.9701,83.64347,161.158)" fill="#7a6f62"/>
<use data-text="l" xlink:href="#font_4_13" transform="matrix(7.9701,0,0,-7.9701,87.40536,161.158)" fill="#7a6f62"/>
<use data-text="o" xlink:href="#font_4_16" transform="matrix(7.9701,0,0,-7.9701,89.75654,161.158)" fill="#7a6f62"/>
<use data-text="w" xlink:href="#font_4_22" transform="matrix(7.9701,0,0,-7.9701,93.74956,161.158)" fill="#7a6f62"/>
<use data-text="m" xlink:href="#font_4_14" transform="matrix(7.9701,0,0,-7.9701,102.684047,161.158)" fill="#7a6f62"/>
<use data-text="i" xlink:href="#font_4_12" transform="matrix(7.9701,0,0,-7.9701,109.73758,161.158)" fill="#7a6f62"/>
<use data-text="n" xlink:href="#font_4_15" transform="matrix(7.9701,0,0,-7.9701,112.08876,161.158)" fill="#7a6f62"/>
<use data-text="A" xlink:href="#font_3_1" transform="matrix(7.9701,0,0,-7.9701,118.22101,161.158)" fill="#7a6f62"/>
<use data-text="V" xlink:href="#font_3_4" transform="matrix(7.9701,0,0,-7.9701,124.56521,161.158)" fill="#7a6f62"/>
<use data-text="C" xlink:href="#font_3_2" transform="matrix(7.9701,0,0,-7.9701,131.37966,161.158)" fill="#7a6f62"/>
<use data-text="," xlink:href="#font_4_4" transform="matrix(7.9701,0,0,-7.9701,137.97602,161.158)" fill="#7a6f62"/>
<use data-text="t" xlink:href="#font_4_20" transform="matrix(7.9701,0,0,-7.9701,143.1486,161.158)" fill="#7a6f62"/>
<use data-text="h" xlink:href="#font_4_11" transform="matrix(7.9701,0,0,-7.9701,146.44026,161.158)" fill="#7a6f62"/>
<use data-text="e" xlink:href="#font_4_10" transform="matrix(7.9701,0,0,-7.9701,151.14263,161.158)" fill="#7a6f62"/>
<use data-text="f" xlink:href="#font_4_1" transform="matrix(7.9701,0,0,-7.9701,157.72592,161.158)" fill="#7a6f62"/>
<use data-text="r" xlink:href="#font_4_18" transform="matrix(7.9701,0,0,-7.9701,162.42829,161.158)" fill="#7a6f62"/>
<use data-text="m" xlink:href="#font_4_14" transform="matrix(7.9701,0,0,-7.9701,165.7279,161.158)" fill="#7a6f62"/>
<use data-text="s" xlink:href="#font_4_19" transform="matrix(7.9701,0,0,-7.9701,175.61084,161.158)" fill="#7a6f62"/>
<use data-text="h" xlink:href="#font_4_11" transform="matrix(7.9701,0,0,-7.9701,178.95032,161.158)" fill="#7a6f62"/>
<use data-text="u" xlink:href="#font_4_21" transform="matrix(7.9701,0,0,-7.9701,183.41358,161.158)" fill="#7a6f62"/>
<use data-text="t" xlink:href="#font_4_20" transform="matrix(7.9701,0,0,-7.9701,188.11594,161.158)" fill="#7a6f62"/>
<use data-text="s" xlink:href="#font_4_19" transform="matrix(7.9701,0,0,-7.9701,191.4076,161.158)" fill="#7a6f62"/>
<use data-text="d" xlink:href="#font_4_9" transform="matrix(7.9701,0,0,-7.9701,197.56848,161.158)" fill="#7a6f62"/>
<use data-text="o" xlink:href="#font_4_16" transform="matrix(7.9701,0,0,-7.9701,202.27085,161.158)" fill="#7a6f62"/>
<use data-text="w" xlink:href="#font_4_22" transform="matrix(7.9701,0,0,-7.9701,206.27182,161.158)" fill="#7a6f62"/>
<use data-text="n" xlink:href="#font_4_15" transform="matrix(7.9701,0,0,-7.9701,212.38489,161.158)" fill="#7a6f62"/>
<use data-text="(" xlink:href="#font_4_2" transform="matrix(7.9701,0,0,-7.9701,219.90866,161.158)" fill="#7a6f62"/>
<use data-text="q" xlink:href="#font_3_6" transform="matrix(7.9701,0,0,-7.9701,223.23102,161.158)" fill="#7a6f62"/>
<use data-text="=" xlink:href="#font_4_6" transform="matrix(7.9701,0,0,-7.9701,229.65003,161.158)" fill="#7a6f62"/>
<use data-text="0" xlink:href="#font_4_5" transform="matrix(7.9701,0,0,-7.9701,238.5845,161.158)" fill="#7a6f62"/>
<use data-text=")" xlink:href="#font_4_3" transform="matrix(7.9701,0,0,-7.9701,242.81662,161.158)" fill="#7a6f62"/>
</svg>
